<?xml version="1.0" standalone="no"?>
<!DOCTYPE svg PUBLIC "-//W3C//DTD SVG 20010904//EN"
 "http://www.w3.org/TR/2001/REC-SVG-20010904/DTD/svg10.dtd">
<svg version="1.0" xmlns="http://www.w3.org/2000/svg"
 width="1024.000000pt" height="1024.000000pt" viewBox="0 0 1024.000000 1024.000000"
 preserveAspectRatio="xMidYMid meet">

<g transform="translate(0.000000,1024.000000) scale(0.100000,-0.100000)"
fill="#000000" stroke="none">
<path d="M3200 8419 c-66 -13 -168 -66 -222 -117 -193 -180 -194 -444 -3 -702
75 -100 145 -170 335 -332 222 -190 351 -302 409 -354 l45 -42 -43 -22 -44
-22 -73 73 c-48 48 -74 68 -74 56 0 -9 -5 -17 -11 -17 -5 0 -7 -5 -3 -11 4 -7
-4 -20 -17 -31 -13 -11 -18 -16 -10 -12 11 5 13 3 8 -9 -5 -12 -1 -17 13 -17
22 0 43 -33 45 -73 2 -27 2 -27 -42 15 -23 24 -43 49 -43 57 0 8 -6 11 -16 7
-12 -5 -15 -2 -10 9 3 9 2 13 -3 10 -6 -3 -18 7 -28 21 -15 23 -38 48 -103
111 -41 40 -79 84 -97 113 -31 49 -28 30 6 -38 34 -69 45 -102 34 -102 -5 0
-31 21 -58 47 -34 32 -62 72 -88 126 -20 44 -46 92 -57 107 -11 15 -16 31 -12
35 4 5 2 5 -5 2 -6 -4 -22 11 -37 38 -50 85 -35 45 34 -92 77 -152 100 -213
57 -153 -13 19 -50 52 -80 73 -48 33 -60 48 -77 95 -12 31 -25 61 -30 67 -5 6
-32 55 -60 110 -64 124 -56 87 11 -53 27 -57 49 -112 49 -122 0 -10 5 -22 10
-25 6 -3 10 -14 9 -23 0 -15 -1 -15 -7 -1 -4 9 -33 38 -64 65 -60 51 -200 256
-259 379 -16 33 -29 51 -29 41 0 -18 146 -305 160 -316 8 -6 30 -46 30 -54 0
-18 -21 -2 -26 19 -4 14 -9 24 -12 21 -2 -3 -23 10 -45 29 -22 19 -44 35 -47
35 -4 0 -24 29 -45 65 -40 68 -107 152 -84 105 7 -13 25 -42 40 -63 30 -41 55
-104 45 -114 -3 -3 -10 6 -15 19 -5 14 -29 57 -53 94 -24 38 -50 83 -58 99
-17 34 -50 71 -50 55 0 -6 8 -23 18 -38 11 -15 33 -50 49 -79 l31 -51 -32 19
c-32 18 -50 46 -66 99 -7 24 -160 249 -160 236 0 -12 41 -88 76 -140 18 -28
44 -76 58 -107 33 -75 20 -89 -43 -45 -25 18 -65 44 -89 57 -34 18 -49 36 -73
85 -16 34 -29 69 -29 77 0 24 -17 29 -23 7 -3 -10 4 -35 14 -55 10 -19 17 -35
14 -35 -3 0 1 -13 10 -30 9 -16 12 -30 7 -30 -13 0 -49 42 -56 67 -4 11 -14
27 -23 35 -15 11 -16 11 -10 -4 19 -47 18 -52 -1 -29 -30 36 -46 18 -23 -27
21 -42 36 -162 21 -162 -6 0 -38 30 -72 66 -35 36 -71 70 -82 76 -24 13 99
-149 126 -165 11 -7 32 -37 46 -67 15 -30 28 -58 30 -62 2 -5 -5 -8 -16 -8
-11 0 -63 34 -116 75 -53 41 -98 75 -100 75 -6 0 160 -158 201 -192 20 -16 31
-32 27 -41 -3 -8 4 -34 16 -57 12 -23 20 -44 17 -46 -2 -2 -50 39 -108 91 -57
53 -113 100 -124 106 -30 17 141 -155 188 -188 22 -15 61 -47 86 -70 l46 -43
-65 25 c-36 14 -98 45 -137 69 -40 25 -73 42 -73 38 1 -14 146 -110 200 -132
69 -29 119 -65 130 -95 5 -12 16 -25 26 -29 9 -4 14 -9 11 -12 -20 -20 -209
77 -296 151 -57 50 -36 17 34 -50 28 -27 66 -69 84 -92 36 -47 64 -60 33 -15
-34 49 -38 59 -16 41 22 -18 133 -71 185 -88 36 -12 93 -61 70 -61 -6 0 -29 9
-50 20 -32 16 -39 17 -37 4 2 -15 52 -45 96 -59 33 -10 110 -58 110 -69 0 -16
-52 5 -116 49 -36 25 -75 45 -87 45 -14 0 -42 23 -81 66 -32 36 -61 63 -64 60
-2 -3 1 -12 8 -21 7 -8 9 -15 4 -15 -4 0 -3 -5 4 -12 17 -17 15 -24 -7 -24
-11 0 -18 4 -15 7 5 9 -14 22 -35 26 -8 1 -46 36 -84 78 -38 42 -106 104 -151
138 -44 34 -91 72 -104 86 -12 13 -25 22 -28 19 -3 -3 26 -32 63 -64 96 -83
243 -230 243 -243 0 -7 -20 -1 -47 13 -27 13 -59 27 -73 31 -14 4 -33 15 -44
24 -10 9 -35 25 -56 36 -47 25 -232 177 -322 265 -38 37 -68 63 -68 59 0 -8
62 -73 198 -203 56 -54 102 -100 102 -102 0 -2 -19 3 -41 11 -23 8 -48 15 -56
15 -9 0 -43 26 -77 58 -56 52 -207 162 -223 162 -4 0 13 -15 37 -32 62 -46
171 -148 159 -148 -5 0 -33 12 -61 26 -28 14 -59 23 -70 21 -13 -4 -18 -1 -15
7 6 15 -58 65 -208 163 -75 49 -93 57 -70 33 16 -17 74 -60 127 -96 90 -60
138 -106 138 -133 0 -14 7 -15 -90 14 -46 14 -94 25 -107 25 -30 0 -57 14
-108 55 -57 45 -85 59 -85 42 0 -7 20 -27 45 -45 25 -17 45 -38 45 -46 0 -15
49 -36 85 -36 54 0 131 -33 172 -75 48 -48 59 -91 21 -79 -23 7 -23 6 -4 -14
18 -21 18 -21 -14 -12 l-33 9 24 -26 24 -26 -30 7 c-45 11 -80 30 -80 43 0 6
-4 15 -9 20 -5 5 -6 3 -2 -4 4 -7 3 -13 -1 -13 -5 0 -15 6 -23 13 -12 10 -12
9 0 -6 7 -10 33 -30 57 -44 24 -14 42 -27 40 -30 -6 -6 -77 36 -116 70 -18 15
-44 32 -57 37 -15 6 -35 33 -55 72 -17 35 -43 76 -58 92 l-26 28 33 -17 c19
-9 36 -14 39 -11 6 5 -75 66 -89 66 -13 0 -9 -23 7 -47 33 -47 96 -165 91
-170 -8 -8 11 -40 51 -84 22 -24 30 -39 21 -39 -31 0 -183 113 -173 129 4 8
-98 101 -111 101 -5 0 8 -17 27 -37 19 -21 51 -58 71 -83 19 -25 69 -70 111
-100 45 -33 82 -68 92 -89 9 -18 14 -35 13 -37 -5 -4 -191 87 -238 116 l-35
22 30 -26 c17 -14 66 -49 110 -77 44 -28 102 -66 129 -85 26 -19 58 -34 70
-34 25 0 86 -35 86 -50 0 -18 -52 -8 -240 46 -14 4 -23 4 -20 1 9 -10 205 -74
250 -82 53 -9 150 -53 157 -71 2 -7 18 -18 34 -24 16 -7 29 -16 29 -21 0 -27
-212 11 -291 52 -23 11 -43 18 -45 16 -7 -6 103 -53 166 -71 30 -9 91 -20 135
-24 80 -9 174 -42 196 -68 7 -8 10 -16 8 -18 -6 -4 -194 11 -231 19 -18 4 -30
4 -26 0 7 -7 88 -27 121 -28 9 -1 17 -4 17 -8 0 -7 112 -27 208 -35 67 -6 100
-23 50 -25 -19 -1 -17 -3 7 -9 37 -9 31 -10 -75 -12 -87 -1 -117 5 -255 57
-48 19 -98 28 -160 32 -153 9 -266 -31 -378 -136 -91 -86 -140 -184 -167 -338
-17 -94 -1 -219 45 -358 85 -258 284 -478 509 -564 l71 -27 3 -70 3 -70 -67
-11 c-241 -41 -419 -264 -440 -550 -7 -104 20 -256 65 -364 78 -187 254 -363
449 -450 154 -70 373 -107 564 -95 103 6 280 36 334 56 56 22 59 17 54 -68 -4
-61 -10 -84 -28 -107 -13 -17 -36 -57 -51 -90 -34 -74 -114 -163 -174 -193
-47 -24 -130 -43 -156 -36 -9 2 26 -16 76 -41 96 -48 165 -65 268 -65 77 -1
111 -14 237 -88 57 -33 128 -68 158 -78 30 -11 57 -20 59 -21 2 -1 -10 -14
-25 -28 -37 -33 -87 -56 -143 -64 l-44 -6 99 -47 c304 -144 539 -113 696 93
29 37 53 67 54 66 1 -1 -7 -51 -17 -112 -24 -144 -23 -158 5 -192 57 -68 384
-203 665 -274 219 -56 481 -99 698 -113 136 -9 490 -7 619 4 455 37 924 156
1213 305 150 77 156 91 119 274 -13 67 -23 121 -22 121 2 0 19 -25 39 -55 49
-73 116 -131 195 -169 133 -62 314 -45 510 51 l95 46 -55 9 c-55 9 -86 24
-127 61 -28 25 -29 37 -3 37 28 0 123 44 198 91 99 63 146 79 260 90 112 10
191 33 281 79 l56 29 -46 1 c-80 0 -136 27 -215 102 -58 55 -85 91 -128 172
-77 145 -78 137 29 153 514 75 857 414 959 948 19 100 34 240 40 371 l5 101
67 134 c58 117 77 145 153 224 134 142 211 266 273 445 31 91 32 102 33 245 0
160 -8 201 -63 310 -34 67 -135 166 -208 203 -101 51 -172 65 -309 60 -106 -4
-132 -9 -222 -41 -56 -19 -128 -38 -160 -42 -32 -3 -76 -8 -98 -11 l-40 -5 53
30 c40 22 79 33 165 46 146 21 207 35 207 45 0 5 -15 4 -32 -1 -18 -5 -65 -9
-103 -9 -39 0 -76 -5 -82 -11 -6 -6 -18 -9 -26 -7 -28 6 106 77 164 87 192 34
237 45 300 73 85 38 85 49 -1 14 -64 -26 -189 -56 -235 -56 -32 0 -33 18 -1
30 14 5 29 18 35 28 11 20 84 50 186 76 65 17 251 88 263 101 4 4 0 5 -8 2
-111 -41 -289 -91 -297 -84 -2 3 7 18 21 34 15 18 74 54 143 88 112 55 277
154 269 163 -2 2 -23 -9 -46 -23 -76 -48 -225 -116 -228 -105 -10 28 11 60 59
90 60 36 130 101 202 184 71 81 32 55 -88 -59 -95 -90 -129 -114 -142 -101 -4
3 3 16 14 29 11 12 43 69 71 127 28 58 57 114 65 125 11 14 12 23 4 36 -10 16
-16 13 -60 -28 -26 -25 -51 -42 -54 -39 -9 8 16 34 66 69 25 17 39 33 32 35
-7 2 -43 -17 -81 -43 -47 -33 -89 -52 -132 -62 -35 -8 -78 -23 -97 -34 -18
-11 -34 -19 -35 -17 -1 2 -7 11 -15 20 -19 25 -1 50 77 104 135 95 203 147
198 151 -5 6 -263 -166 -309 -206 -36 -32 -127 -76 -127 -62 0 10 107 112 143
136 15 10 25 20 23 23 -13 13 -216 -154 -216 -178 0 -8 -5 -22 -11 -30 -9 -12
-10 -11 -6 7 5 21 3 21 -27 8 -83 -35 -136 -53 -136 -45 0 4 57 61 128 126 70
65 136 130 146 144 11 14 -1 7 -25 -16 -24 -22 -81 -71 -126 -107 -45 -37
-113 -101 -151 -142 -39 -41 -73 -75 -76 -75 -3 0 -6 10 -6 23 -1 19 -2 20
-13 7 -7 -9 -28 -21 -47 -27 -19 -6 -53 -18 -74 -28 l-39 -16 32 40 c18 22 78
84 134 136 106 100 158 164 70 85 -28 -25 -88 -76 -133 -115 -45 -38 -96 -88
-113 -110 -64 -83 -78 -95 -94 -79 -12 12 -18 12 -46 -2 l-32 -15 25 20 c14
11 30 19 37 16 12 -4 29 12 35 33 2 8 28 39 58 70 61 62 111 131 74 102 -28
-22 -134 -133 -134 -141 0 -11 -164 -151 -189 -160 -45 -18 -42 -4 8 36 74 58
54 58 -46 -1 -17 -10 -35 -15 -39 -11 -15 15 39 56 90 67 28 7 67 23 87 36 19
13 39 24 45 24 5 0 31 25 57 55 27 30 44 55 38 55 -5 0 -13 -5 -17 -11 -4 -6
-39 -27 -78 -45 -42 -21 -60 -33 -43 -31 15 3 27 0 27 -4 0 -5 -7 -9 -15 -9
-9 0 -34 -9 -55 -20 -22 -11 -40 -18 -40 -14 0 3 17 26 37 51 26 31 61 57 116
84 67 34 207 132 207 145 0 2 -24 -9 -52 -26 -63 -37 -165 -90 -173 -90 -20 0
11 32 118 121 117 97 166 145 167 162 0 7 -67 -44 -162 -124 -51 -43 -64 -48
-53 -21 8 19 13 41 14 58 1 7 23 29 50 50 58 43 186 183 152 165 -12 -7 -53
-40 -90 -75 -64 -58 -111 -80 -111 -52 0 8 7 19 15 26 8 7 15 20 15 29 0 9 20
43 45 76 47 63 90 159 79 177 -4 6 -13 -3 -20 -20 -20 -49 -83 -142 -95 -142
-8 0 -10 16 -5 50 3 28 8 74 11 103 6 51 6 52 -9 22 -17 -36 -21 -21 -5 23 8
25 8 35 -3 46 -19 18 -34 6 -86 -70 -25 -38 -58 -71 -84 -87 -24 -14 -54 -37
-67 -51 -24 -25 -25 -25 -38 -6 -8 11 -20 17 -28 13 -15 -5 18 60 77 152 31
49 80 145 74 145 -6 0 -150 -220 -171 -259 -8 -17 -14 -35 -13 -40 2 -5 -1
-10 -7 -11 -5 -1 -26 -15 -46 -31 -20 -16 -42 -29 -48 -29 -7 0 -19 -16 -27
-36 -8 -20 -18 -34 -20 -31 -11 11 8 48 45 86 37 38 135 200 127 208 -2 3 -31
-38 -64 -89 -75 -116 -109 -159 -198 -252 -46 -47 -76 -71 -84 -66 -9 5 -9 9
-1 14 6 4 11 4 11 -1 1 -23 180 330 180 354 0 10 -15 -14 -34 -52 -18 -39 -67
-121 -110 -184 -42 -63 -76 -117 -76 -121 0 -3 -31 -32 -70 -65 -38 -33 -70
-67 -70 -77 0 -9 -4 -20 -10 -23 -5 -3 -10 3 -10 14 0 11 5 23 10 26 6 3 10
15 10 25 0 10 18 54 41 97 35 67 79 174 79 192 0 3 -36 -66 -79 -154 -63 -126
-91 -171 -133 -214 -29 -29 -58 -63 -65 -75 -12 -20 -12 -20 -13 7 0 39 32
124 74 196 42 73 46 89 10 43 -14 -18 -30 -30 -34 -27 -5 3 -14 -12 -20 -34
-6 -22 -22 -64 -35 -93 -14 -29 -25 -62 -25 -73 0 -11 -12 -28 -25 -38 l-25
-18 16 41 c25 61 10 59 -20 -3 -21 -45 -60 -87 -80 -87 -14 0 48 127 78 160
46 51 70 133 62 209 -6 52 -4 61 25 104 35 53 74 86 175 144 90 53 169 124
196 177 41 80 22 190 -44 256 -43 44 -86 60 -156 60 -107 0 -196 -75 -304
-258 -46 -76 -114 -150 -141 -153 -6 -1 -55 -2 -107 -3 -103 -2 -114 -5 -198
-68 -30 -22 -55 -38 -56 -36 -1 1 -11 23 -22 48 -45 105 -214 228 -317 232
-39 1 -57 8 -95 38 -74 58 -131 87 -216 110 -80 22 -86 22 -296 9 -8 -1 -51
13 -95 29 -199 76 -464 76 -593 1 -31 -18 -37 -18 -92 -4 -83 22 -173 19 -284
-10 -107 -27 -175 -60 -274 -132 -169 -124 -231 -211 -257 -357 l-12 -71 -17
60 c-10 33 -29 101 -43 150 -129 452 -271 645 -521 709 -69 17 -112 19 -182 5z
m144 -38 c4 -5 -17 -14 -44 -20 -58 -12 -100 -32 -149 -69 -33 -24 -34 -25
-47 -7 -8 10 -14 24 -14 30 0 13 79 55 124 66 45 10 124 10 130 0z m132 -51
c66 -32 157 -121 209 -204 71 -114 116 -237 210 -571 42 -149 105 -446 97
-459 -7 -13 -18 12 -37 89 -24 99 -101 338 -179 555 -134 374 -227 516 -366
556 -30 9 -68 22 -85 29 -26 12 -27 14 -8 14 12 1 25 6 29 12 10 16 75 5 130
-21z m-410 -62 c5 -17 -3 -30 -44 -65 -106 -91 -120 -248 -38 -411 66 -130
156 -230 583 -644 90 -87 160 -158 157 -158 -11 0 -254 196 -409 331 -142 122
-298 289 -345 368 -65 109 -83 171 -84 286 -1 89 2 107 26 157 28 60 111 158
134 158 7 0 16 -10 20 -22z m271 2 c24 -11 78 -55 124 -102 69 -71 89 -100
139 -203 33 -66 86 -199 119 -295 72 -211 173 -485 194 -526 8 -16 18 -40 21
-54 6 -19 2 -16 -16 12 -111 176 -118 189 -323 647 -100 224 -246 413 -367
476 -32 17 -58 33 -58 37 0 11 52 26 90 27 19 0 54 -8 77 -19z m184 -93 c46
-49 109 -153 124 -207 3 -14 -8 0 -26 30 -38 65 -108 160 -158 214 -29 30 -31
36 -12 26 13 -6 45 -35 72 -63z m-290 -1 c48 -34 141 -129 178 -185 49 -71
141 -254 245 -484 82 -181 169 -356 211 -424 17 -27 22 -44 14 -48 -5 -4 -11
-5 -13 -4 -1 2 -33 54 -71 114 -74 116 -75 119 -256 381 -211 307 -258 382
-333 531 -41 82 -72 151 -69 155 5 9 62 -13 94 -36z m-98 -61 c47 -115 112
-230 230 -406 199 -297 325 -485 379 -569 78 -120 103 -172 44 -92 -48 66
-189 237 -327 397 -318 369 -398 492 -407 628 -4 59 -1 79 13 101 10 15 22 25
27 24 5 -2 23 -39 41 -83z m-84 -197 c29 -64 171 -256 300 -407 58 -69 155
-184 215 -255 60 -72 118 -142 130 -156 48 -56 -27 13 -268 245 -280 271 -348
350 -407 471 -47 96 -59 172 -39 244 l13 45 17 -70 c10 -38 27 -91 39 -117z
m4328 141 c36 -13 73 -48 73 -68 0 -11 -3 -10 -15 5 -14 19 -14 19 -15 -1 0
-27 -34 -62 -132 -136 -46 -34 -85 -64 -87 -66 -2 -2 -2 -6 1 -9 3 -3 49 24
101 60 52 36 98 66 101 66 33 0 -53 -82 -123 -117 -31 -16 -61 -34 -66 -41 -9
-11 -21 -3 -57 36 -25 27 -54 52 -63 56 -15 5 -14 10 6 45 32 57 130 150 175
166 48 17 65 18 101 4z m-2007 -22 l55 -13 -38 -13 c-21 -7 -51 -24 -67 -37
-59 -50 -120 -191 -120 -278 0 -40 0 -40 16 -18 8 12 41 38 72 58 31 20 91 68
133 107 108 97 151 124 224 136 104 18 283 -24 380 -90 l34 -24 -36 -17 c-48
-23 -76 -51 -113 -108 -30 -47 -40 -88 -18 -74 6 4 24 8 39 9 24 2 80 30 235
116 l40 23 47 -23 c61 -29 140 -100 113 -101 -11 0 -29 9 -40 19 -12 10 -37
22 -56 25 -25 4 -29 4 -15 -3 37 -17 66 -57 63 -87 -2 -18 1 -28 9 -27 6 1 14
-4 17 -13 3 -8 2 -12 -3 -9 -15 8 -25 -15 -12 -28 6 -6 11 -29 10 -51 l-1 -41
-13 29 -13 30 -6 -40 c-10 -59 -26 -78 -26 -31 0 60 -24 40 -31 -25 -7 -59
-15 -81 -29 -73 -5 3 -16 -5 -25 -17 l-17 -23 8 25 c6 23 6 24 -11 10 -10 -8
-33 -15 -52 -15 -29 0 -33 3 -28 20 31 100 29 124 -16 156 -16 11 -27 25 -24
30 10 15 -12 10 -25 -6 -7 -8 -38 -23 -69 -32 -41 -13 -50 -18 -33 -21 13 -2
37 1 54 7 50 18 67 14 39 -9 -18 -15 -19 -20 -7 -20 19 0 22 -20 4 -21 -10 0
-10 -2 0 -6 9 -4 6 -15 -14 -40 -24 -31 -24 -34 -6 -24 28 15 42 42 42 81 0
18 4 29 10 25 30 -19 -8 -121 -69 -185 -27 -28 -49 -41 -91 -50 -68 -15 -329
-24 -690 -25 -290 0 -370 7 -370 30 0 8 -19 35 -43 60 -47 49 -48 60 -1 20 16
-14 43 -35 61 -46 17 -10 34 -26 37 -34 3 -8 10 -15 15 -15 17 0 -18 56 -44
70 -14 7 -25 17 -25 22 0 5 -21 18 -47 29 -27 11 -58 30 -70 41 -13 12 -23 17
-23 11 0 -5 9 -18 21 -29 19 -17 19 -19 3 -24 -14 -5 -10 -11 20 -29 20 -13
44 -34 52 -47 18 -26 10 -51 -10 -35 -7 6 -15 8 -18 6 -10 -10 -193 -6 -243 5
-28 7 -63 13 -79 15 -15 3 -33 8 -40 13 -6 5 -34 12 -62 16 -76 10 -156 35
-148 48 4 6 0 8 -12 4 -24 -7 -77 25 -101 61 -30 45 -25 182 8 253 32 68 75
119 136 159 57 38 68 39 46 4 l-17 -28 27 24 c15 14 26 31 25 40 -8 48 243
151 367 151 l50 0 -32 -25 c-66 -52 -113 -174 -113 -292 l0 -63 69 72 c38 40
100 114 138 163 39 50 88 102 109 116 38 25 114 54 164 62 50 8 267 -2 320
-16z m-82 -203 c-13 -25 -24 -41 -26 -36 -3 9 36 82 44 82 2 0 -6 -21 -18 -46z
m-582 -2 c-20 -39 -63 -90 -87 -103 -17 -8 -19 -6 -18 18 0 24 1 25 8 8 8 -18
10 -17 27 14 23 41 75 103 81 97 2 -2 -2 -18 -11 -34z m644 24 c0 -2 -8 -10
-17 -17 -16 -13 -17 -12 -4 4 13 16 21 21 21 13z m-721 -45 c-6 -18 -14 -30
-17 -27 -2 3 1 19 8 36 16 40 23 33 9 -9z m2822 11 c-15 -28 -77 -79 -150
-125 -91 -56 -74 -36 25 29 47 31 95 71 107 89 23 36 36 40 18 7z m-325 -44
l41 -43 -45 -40 c-43 -38 -44 -38 -28 -10 l18 30 -25 -29 c-13 -15 -36 -38
-49 -50 -13 -11 -17 -16 -8 -11 13 9 13 8 1 -7 -7 -10 -17 -16 -21 -13 -4 3
-13 -2 -20 -10 -17 -20 -25 -19 -55 9 -15 14 -32 27 -38 29 -7 2 1 15 18 28
60 48 116 103 133 131 9 15 21 28 27 28 6 0 29 -19 51 -42z m224 7 c0 -9 -111
-77 -117 -72 -4 5 34 32 92 65 23 13 25 14 25 7z m774 -32 c-9 -21 -18 -45
-21 -53 -2 -9 -13 -22 -25 -29 -23 -15 -23 -13 17 62 34 64 54 77 29 20z
m-2153 -12 c-6 -10 -8 -21 -6 -25 3 -3 2 -4 -1 -2 -3 2 -15 -5 -26 -16 -11
-11 -22 -17 -26 -14 -5 5 56 76 65 76 2 0 -1 -8 -6 -19z m1209 -46 c-7 -8 -17
-15 -22 -15 -6 0 -5 7 2 15 7 8 17 15 22 15 6 0 5 -7 -2 -15z m-4995 -63 c91
-48 126 -76 155 -124 24 -40 27 -98 5 -98 -8 0 -15 -5 -15 -12 0 -7 -15 2 -32
18 -18 17 -51 43 -73 59 -33 23 -29 17 25 -40 68 -70 54 -73 -25 -5 -66 57
-68 49 -5 -16 l55 -56 -40 22 c-39 21 -40 21 -16 1 13 -12 18 -21 11 -21 -17
0 -78 67 -101 112 -10 20 -21 63 -24 95 -3 32 -8 71 -10 86 -3 16 -1 27 3 25
4 -2 43 -22 87 -46z m5944 -96 c-12 -68 -62 -141 -114 -168 -16 -9 -18 -8 -7
3 6 7 12 17 12 22 0 4 -6 5 -12 1 -7 -4 -6 1 3 12 30 36 32 49 3 23 -16 -15
-45 -34 -64 -44 -32 -16 -31 -13 25 45 33 34 51 58 40 52 -11 -6 -38 -29 -60
-51 -42 -44 -55 -50 -55 -25 0 8 -4 13 -9 9 -18 -10 -22 14 -10 57 14 56 76
115 171 165 l73 38 6 -45 c4 -25 3 -67 -2 -94z m-1049 80 c-30 -30 -57 -53
-60 -50 -5 6 94 104 106 104 4 0 -17 -25 -46 -54z m-232 15 c20 -11 52 -35 71
-54 l33 -35 -27 -39 c-15 -21 -53 -62 -84 -90 -61 -58 -58 -70 7 -23 24 17 52
50 67 79 13 27 29 52 34 55 14 9 61 -70 61 -102 0 -31 -17 -90 -32 -109 -6 -8
-18 -3 -41 18 -37 34 -57 37 -57 8 0 -11 4 -18 9 -15 5 4 18 -6 29 -21 l19
-26 -101 -115 c-165 -187 -262 -285 -277 -280 -9 3 18 38 81 105 119 126 250
287 250 307 0 23 -15 19 -27 -7 -6 -13 -51 -66 -99 -119 -49 -53 -106 -116
-126 -141 -21 -25 -67 -71 -103 -103 l-66 -57 -45 22 -45 23 108 105 c123 120
113 117 -33 -10 l-101 -87 -63 28 -63 28 67 59 c36 33 74 71 82 85 9 14 -15
-4 -52 -40 -116 -111 -104 -104 -168 -84 -31 10 -56 20 -56 24 0 6 151 155
306 301 50 47 97 96 104 110 12 23 -210 -187 -355 -336 -65 -66 -74 -72 -103
-67 -18 2 -32 8 -30 13 2 5 42 43 89 86 48 43 181 167 296 276 116 109 221
205 233 214 51 36 153 42 208 14z m-488 -1 c0 -5 -2 -10 -4 -10 -3 0 -8 5 -11
10 -3 6 -1 10 4 10 6 0 11 -4 11 -10z m840 6 c0 -2 -21 -20 -47 -41 l-48 -37
42 41 c38 37 53 48 53 37z m-3373 -146 c-1 -8 -11 10 -21 40 -29 85 -29 89 -1
30 14 -30 24 -61 22 -70z m2560 68 c-3 -8 -6 -5 -6 6 -1 11 2 17 5 13 3 -3 4
-12 1 -19z m1463 -90 c0 -103 -11 -144 -51 -188 -27 -31 -30 -33 -25 -11 4 18
2 21 -7 12 -20 -20 -24 -12 -16 37 4 26 6 48 4 50 -1 1 -10 -16 -20 -38 -13
-28 -21 -37 -27 -28 -12 21 -9 95 6 132 21 51 84 116 112 116 23 0 24 -2 24
-82z m-5380 35 c62 -70 84 -150 58 -208 l-11 -25 -19 27 c-21 32 -22 30 -8
-16 l9 -34 -24 23 c-25 24 -36 15 -12 -9 10 -11 9 -13 -3 -9 -29 9 -73 96 -78
152 -5 58 21 136 44 136 7 0 26 -17 44 -37z m3617 -60 c-3 -10 -5 -2 -5 17 0
19 2 27 5 18 2 -10 2 -26 0 -35z m-3431 -75 c15 -18 36 -52 46 -76 17 -38 18
-50 8 -93 -7 -27 -16 -49 -22 -49 -5 0 -6 -5 -2 -12 4 -6 3 -8 -4 -4 -6 3 -16
22 -22 42 -7 19 -14 34 -16 31 -2 -2 1 -18 7 -35 6 -17 9 -39 7 -49 -2 -14 -8
-10 -25 17 -26 40 -27 39 -13 -10 l9 -35 -28 33 c-54 63 -65 180 -25 260 18
37 34 33 80 -20z m5012 1 c21 -72 19 -158 -5 -204 -11 -22 -31 -49 -43 -60
l-23 -20 18 35 17 35 -32 -30 -32 -30 8 30 c4 17 11 38 15 47 15 29 9 34 -7 6
-17 -32 -34 -37 -34 -10 0 13 -2 14 -9 4 -7 -11 -10 -10 -15 3 -12 31 -6 86
13 123 26 50 91 124 104 119 7 -2 17 -23 25 -48z m-3594 -151 c3 -51 8 -121
12 -155 6 -53 4 -63 -8 -63 -12 0 -18 16 -22 58 -4 31 -16 91 -26 132 -22 89
-40 177 -40 193 0 6 18 -8 40 -31 40 -42 40 -42 44 -134z m2966 70 c-10 -37
-41 -71 -208 -238 -198 -197 -218 -209 -41 -25 53 55 120 125 149 155 51 54
99 132 101 167 1 16 2 16 6 1 2 -9 -1 -36 -7 -60z m1080 52 c0 -5 -4 -10 -10
-10 -5 0 -10 5 -10 10 0 6 5 10 10 10 6 0 10 -4 10 -10z m-2051 -17 c-6 -10
-23 -27 -37 -38 -26 -19 -26 -18 3 17 31 38 54 51 34 21z m2009 -14 c5 -29
-28 -87 -68 -119 l-41 -32 22 36 21 37 -68 -35 c-42 -21 -91 -37 -124 -41 -69
-7 -47 10 25 19 64 9 85 15 85 26 0 4 -21 2 -47 -6 -25 -8 -56 -14 -67 -14
-12 0 -34 -7 -50 -15 -37 -19 -42 -19 -25 2 12 15 12 16 -3 10 -26 -9 -22 8 5
20 12 6 41 26 63 45 51 42 79 54 169 72 82 17 99 16 103 -5z m-5805 0 c75 -12
113 -32 192 -103 30 -26 35 -35 22 -36 -10 0 -16 -4 -13 -9 8 -13 -48 -24 -75
-16 -16 5 -18 9 -9 15 9 6 -1 12 -29 20 -24 6 -46 9 -49 6 -3 -3 9 -9 26 -12
18 -4 32 -10 32 -15 0 -12 -66 16 -85 35 -8 8 -40 29 -70 46 -43 25 -55 37
-55 56 0 28 8 29 113 13z m5217 -28 c14 -34 19 -191 7 -241 -8 -36 -46 -83
-82 -102 -20 -11 -20 -11 0 13 11 13 33 39 50 58 l30 34 -32 -22 c-18 -12 -35
-26 -38 -31 -11 -18 -26 -11 -17 8 5 9 6 31 2 47 -6 30 -6 30 -18 8 -18 -32
-25 -29 -43 20 -14 40 -14 47 3 87 25 58 98 149 119 150 4 0 12 -13 19 -29z
m-4671 -20 c53 -53 85 -139 71 -189 -14 -50 -25 -66 -40 -57 -10 6 -12 1 -7
-20 l5 -29 -19 25 -18 24 6 -24 c4 -17 3 -22 -5 -17 -7 4 -12 2 -12 -5 0 -20
-30 11 -51 54 -28 53 -34 125 -19 199 19 91 32 96 89 39z m1367 4 c9 -13 14
-30 11 -37 -3 -8 -6 -5 -6 7 -1 14 -4 16 -12 8 -17 -17 -39 -4 -39 23 0 32 25
31 46 -1z m144 -19 c47 -8 92 -17 100 -20 32 -12 80 -17 225 -27 83 -5 184
-16 225 -22 l75 -13 -80 -7 c-44 -4 -107 -10 -140 -14 -82 -10 -117 -9 -290 9
-184 20 -227 36 -232 86 -3 26 1 27 117 8z m-2105 -56 l30 -35 -38 34 c-20 19
-37 39 -37 45 0 6 3 6 8 1 4 -6 21 -26 37 -45z m1950 20 c3 -6 -1 -7 -9 -4
-18 7 -21 14 -7 14 6 0 13 -4 16 -10z m1760 -30 l-20 -9 20 -1 c17 -2 16 -3
-5 -10 -14 -4 -32 -8 -40 -9 -13 -1 -13 0 0 9 25 16 6 20 -58 14 -38 -4 -59
-11 -55 -17 3 -6 1 -7 -5 -3 -6 4 -20 2 -31 -3 -10 -6 -45 -13 -78 -16 -47 -5
-62 -3 -72 9 -18 21 -10 23 134 34 163 12 236 13 210 2z m3175 -82 c-44 -91
-106 -155 -158 -164 -15 -3 -36 -7 -47 -10 -11 -3 3 7 32 21 71 36 91 62 22
30 -81 -37 -90 -30 -19 16 34 22 60 43 57 46 -3 3 -19 -4 -35 -16 -17 -12 -35
-21 -41 -21 -7 0 -30 -9 -52 -20 -46 -24 -69 -18 -43 11 16 18 16 19 1 13 -24
-9 -22 27 4 60 34 44 101 75 205 97 54 11 101 22 103 25 16 16 6 -15 -29 -88z
m-6105 31 c68 -76 90 -155 63 -230 l-13 -34 -6 35 -6 35 -2 -37 c-1 -43 -12
-49 -29 -15 -11 20 -11 18 -6 -12 4 -23 3 -31 -5 -27 -15 10 -14 -7 2 -24 6
-7 -2 -3 -20 9 -53 36 -76 84 -76 160 -1 76 27 181 47 181 8 0 30 -19 51 -41z
m4304 5 c8 -16 16 -67 19 -114 2 -68 -1 -92 -15 -120 -10 -19 -22 -34 -28 -33
-5 1 -21 -8 -34 -20 l-24 -22 7 45 c4 31 3 40 -4 30 -8 -13 -10 -13 -10 -1 0
11 -4 9 -15 -5 -15 -19 -15 -19 -8 0 5 15 3 18 -9 13 -30 -11 -39 68 -14 126
19 45 95 139 109 134 7 -2 18 -17 26 -33z m-5738 -61 c49 -44 69 -81 69 -125
l0 -33 -26 30 c-17 21 -22 23 -15 8 6 -12 11 -32 11 -44 0 -18 -3 -20 -12 -11
-24 24 -31 11 -7 -14 19 -21 20 -24 5 -18 -14 5 -17 4 -12 -5 6 -9 -2 -8 -22
3 -45 23 -101 94 -117 150 -18 58 -18 76 -5 111 l10 26 40 -21 c23 -12 59 -37
81 -57z m4276 71 c-3 -3 -12 -4 -19 -1 -8 3 -5 6 6 6 11 1 17 -2 13 -5z m-80
-10 c-3 -3 -12 -4 -19 -1 -8 3 -5 6 6 6 11 1 17 -2 13 -5z m3030 -48 c-7 -70
-42 -150 -79 -181 -35 -29 -50 -32 -41 -7 6 16 5 16 -14 0 -11 -10 -27 -18
-37 -18 -15 0 -15 4 5 33 12 17 16 26 9 20 -21 -20 -32 -15 -24 9 6 20 5 21
-10 9 -14 -12 -16 -10 -16 12 0 56 129 177 188 177 24 0 25 -1 19 -54z m-7147
-5 c0 -8 -1 -12 -2 -10 -2 2 -14 17 -28 33 l-25 29 27 -19 c15 -10 28 -25 28
-33z m2733 42 c-7 -2 -21 -2 -30 0 -10 3 -4 5 12 5 17 0 24 -2 18 -5z m95 -10
c-10 -2 -28 -2 -40 0 -13 2 -5 4 17 4 22 1 32 -1 23 -4z m-1878 -38 c25 -13
56 -35 70 -50 l25 -26 -28 10 c-40 15 -43 14 -16 -8 28 -23 20 -38 -10 -21
-13 7 -47 9 -91 5 -74 -6 -121 8 -134 41 -3 9 -12 14 -21 10 -8 -3 -15 -1 -15
4 0 6 -9 10 -20 10 -25 0 -25 -7 -2 -34 17 -21 17 -21 -5 -3 -11 10 -23 27
-26 37 -5 21 7 45 19 37 5 -3 36 1 69 8 72 16 125 10 185 -20z m5285 21 c11
-2 23 -4 28 -5 14 -2 7 -38 -12 -62 -10 -13 -34 -33 -52 -43 l-34 -19 34 32
c42 38 30 39 -51 6 -71 -29 -198 -45 -198 -26 0 8 -8 10 -22 6 -22 -6 -22 -6
-4 9 19 15 19 16 -8 16 l-29 0 26 20 c14 11 52 34 84 51 55 30 62 31 138 24
44 -3 89 -8 100 -9z m-3590 -16 c3 -5 -1 -10 -10 -10 -9 0 -13 5 -10 10 3 6 8
10 10 10 2 0 7 -4 10 -10z m1155 -15 c281 -27 625 -115 851 -216 52 -23 171
-82 265 -130 309 -160 600 -250 1042 -320 78 -13 142 -27 142 -32 0 -20 -28
-33 -65 -31 -22 2 -98 10 -170 18 -71 8 -157 18 -190 22 -33 4 -68 11 -78 16
-11 5 -71 25 -135 43 -65 18 -126 36 -137 40 -16 6 -17 5 -5 -4 8 -6 40 -18
70 -27 30 -9 60 -21 67 -26 7 -5 18 -6 24 -2 7 4 9 3 6 -3 -8 -13 87 -40 338
-94 231 -50 221 -47 207 -61 -8 -8 -57 -7 -189 6 -98 9 -196 19 -218 22 -22 4
-37 4 -34 0 3 -3 86 -19 185 -36 98 -17 183 -35 188 -40 13 -13 -35 -34 -74
-32 -19 1 -102 13 -185 26 -197 32 -235 37 -210 25 11 -4 88 -22 170 -39 206
-41 234 -49 211 -62 -17 -10 -92 -6 -251 11 -115 13 -417 3 -490 -15 -66 -17
-121 -40 -146 -61 -13 -11 -24 -8 -74 19 -69 37 -45 36 -520 24 -330 -8 -357
-7 -470 12 -206 36 -329 45 -513 39 -95 -4 -176 -8 -180 -10 -4 -3 -61 -8
-127 -11 -66 -4 -133 -9 -150 -11 -16 -2 -59 -7 -95 -10 -77 -8 -170 -33 -170
-46 0 -5 44 -10 98 -10 89 -1 94 -2 54 -12 -29 -7 -65 -7 -109 0 -67 10 -234
-4 -264 -23 -8 -4 -61 -9 -119 -10 -58 -1 -127 -7 -155 -14 -27 -7 -123 -13
-211 -15 -142 -3 -168 -6 -210 -25 -27 -13 -60 -23 -74 -24 -27 -2 -58 30 -44
44 5 4 54 24 109 45 55 20 102 39 105 42 10 11 -76 -9 -163 -39 l-90 -30 -35
35 -35 35 29 16 c35 18 19 20 -42 5 -46 -12 -52 -25 -19 -43 19 -11 39 -33 60
-67 6 -9 15 -25 22 -36 10 -17 9 -19 -10 -19 -13 1 -30 14 -42 33 -57 90 -177
203 -216 203 -5 0 -9 4 -9 10 0 5 19 14 43 20 23 6 49 14 57 18 26 11 -45 14
-101 4 -42 -8 -59 -7 -87 6 -33 16 -33 17 -10 24 61 19 130 48 103 43 -16 -3
-65 -8 -108 -12 -53 -4 -74 -9 -65 -15 9 -7 5 -8 -12 -3 -14 3 -64 14 -112 23
-49 9 -88 20 -88 24 0 3 30 9 68 13 180 16 573 117 549 141 -7 7 -64 -11 -125
-38 -24 -11 -50 -17 -56 -15 -7 3 -39 -1 -72 -9 -103 -24 -397 -66 -436 -62
-40 4 -46 0 -26 -20 9 -9 5 -12 -20 -12 -29 0 -32 3 -32 30 0 34 -2 33 95 50
39 7 97 18 130 26 33 7 133 29 223 49 369 80 537 139 802 279 107 57 236 120
285 139 215 85 542 164 770 186 61 6 128 13 150 15 50 5 481 -2 555 -9z
m-3647 -68 c24 -23 51 -53 60 -67 16 -23 17 -23 31 -5 12 17 15 14 30 -37 21
-74 21 -85 -3 -64 -19 17 -19 17 -14 -5 5 -16 3 -20 -6 -14 -7 4 -5 -5 5 -21
l18 -29 -24 20 c-20 17 -22 17 -17 3 4 -13 2 -16 -11 -11 -9 3 -23 10 -29 16
-9 6 -13 5 -13 -4 0 -7 -10 -3 -25 11 -14 13 -25 19 -25 13 0 -6 7 -16 15 -23
9 -7 13 -15 10 -18 -3 -3 -21 12 -40 34 -27 29 -33 32 -24 14 l12 -25 -23 20
c-34 29 -60 96 -67 169 -8 93 -5 99 51 80 25 -9 65 -34 89 -57z m6763 47 c23
-91 -38 -248 -111 -286 l-20 -11 20 23 20 23 -21 -11 c-12 -6 -24 -8 -28 -4
-4 3 -4 -2 -1 -13 6 -18 5 -18 -5 -3 -8 13 -8 23 0 37 18 34 11 37 -13 7 l-24
-29 1 41 c1 47 -1 50 -20 25 -19 -27 -24 -13 -13 40 13 59 74 128 144 162 63
30 63 30 71 -1z m-4560 -1 c-2 -11 -12 -18 -27 -18 -20 0 -24 -5 -24 -32 0
-41 -17 -48 -44 -19 l-22 23 53 31 c63 36 67 37 64 15z m-2136 -28 c16 -17 18
-25 9 -31 -8 -4 -15 -2 -17 6 -3 8 -16 24 -29 36 -21 20 -22 22 -4 17 10 -3
29 -15 41 -28z m1436 -40 c14 -28 14 -29 -1 -10 -9 11 -23 34 -31 50 -14 28
-14 29 1 10 9 -11 23 -33 31 -50z m3813 43 c4 -13 11 -63 15 -111 7 -93 -5
-140 -48 -192 -12 -14 -11 -7 4 23 27 56 21 63 -11 12 -22 -36 -41 -52 -38
-32 1 4 1 14 -1 22 -1 11 -3 11 -9 -3 -13 -36 -25 -16 -23 41 1 59 0 57 -24
-17 -4 -11 -7 -10 -18 4 -12 17 -13 17 -19 1 -4 -10 -5 -21 -2 -25 2 -4 -2 -8
-10 -8 -21 0 -19 83 3 124 24 45 144 182 160 183 7 0 16 -10 21 -22z m-3952
-10 c11 -13 27 -34 34 -48 8 -14 21 -25 29 -25 21 0 42 -72 35 -117 -4 -23
-11 -36 -17 -31 -7 4 -9 -1 -6 -14 10 -39 -9 -48 -27 -14 -22 44 -30 33 -11
-14 15 -35 15 -36 -1 -24 -9 8 -18 12 -20 9 -3 -3 -11 6 -18 20 -8 14 -14 21
-14 15 0 -5 6 -21 14 -35 20 -34 18 -43 -4 -31 -54 30 -79 164 -51 280 13 56
26 62 57 29z m205 -73 c11 -21 8 -18 -32 30 -24 29 -24 29 -2 10 13 -11 28
-29 34 -40z m515 25 c13 -35 12 -35 -29 -14 -30 16 -31 17 -13 30 26 19 29 18
42 -16z m-1923 -5 c20 -9 54 -31 75 -51 39 -35 95 -58 71 -29 -16 19 7 32 25
14 21 -22 55 -134 55 -181 l0 -42 -25 34 c-27 37 -30 36 -15 -4 15 -41 -13
-33 -55 17 -37 42 -37 42 -19 7 10 -19 24 -48 31 -64 l13 -28 -27 18 c-27 17
-28 17 -13 -2 8 -10 22 -25 30 -32 10 -9 5 -8 -16 2 -36 17 -101 87 -115 122
-5 14 -16 58 -25 97 -8 40 -21 84 -29 98 -8 14 -12 29 -8 33 8 8 5 8 47 -9z
m6353 -69 c-6 -84 -29 -162 -45 -152 -5 3 -26 -19 -46 -48 -43 -63 -83 -87
-102 -61 -8 10 -18 14 -26 9 -7 -4 -5 1 4 12 18 20 51 104 45 111 -2 2 -12
-14 -22 -36 -11 -25 -22 -38 -31 -34 -9 3 -10 11 -3 30 14 36 11 41 -11 14
l-20 -23 0 31 c0 18 9 49 20 71 33 65 163 160 219 160 24 0 24 0 18 -84z
m-7037 54 c8 -5 11 -10 5 -10 -5 0 -17 5 -25 10 -8 5 -10 10 -5 10 6 0 17 -5
25 -10z m2550 -9 c14 -28 -6 -38 -31 -15 -24 22 -24 34 1 34 10 0 24 -9 30
-19z m3937 13 c-3 -3 -12 -4 -19 -1 -8 3 -5 6 6 6 11 1 17 -2 13 -5z m-4977
-29 c68 -35 66 -54 -8 -60 -20 -1 -50 -7 -65 -14 -39 -15 -52 -14 -99 10 -35
18 -62 25 -116 28 -7 1 -10 6 -7 11 4 6 10 8 15 5 4 -3 41 6 81 20 95 31 138
31 199 0z m4857 6 c29 -10 49 -21 45 -26 -4 -4 3 -6 14 -3 12 3 28 2 35 -3 9
-6 -1 -9 -28 -9 -23 0 -45 -4 -48 -10 -3 -5 -12 -10 -18 -10 -7 0 -6 4 3 10
11 7 3 10 -30 9 -25 0 -39 -3 -32 -6 9 -3 5 -9 -12 -18 -30 -16 -122 -6 -118
13 1 7 -5 12 -13 12 -8 0 -15 -5 -15 -12 0 -6 -2 -9 -5 -6 -12 12 10 38 48 57
51 26 105 26 174 2z m-4281 -116 c27 -56 31 -107 10 -124 -8 -7 -30 -15 -50
-18 l-35 -5 -3 125 -3 126 29 -27 c16 -15 39 -49 52 -77z m-1875 69 c45 -21
57 -30 49 -39 -6 -7 -7 -15 -3 -17 4 -3 2 -3 -5 -2 -7 2 -47 -2 -90 -8 -76
-10 -81 -10 -140 17 -86 38 -82 56 13 68 81 10 120 6 176 -19z m7423 16 c33
-5 64 -14 70 -20 12 -12 -18 -56 -54 -78 -15 -9 -11 -3 10 16 43 38 38 39 -32
7 -57 -27 -94 -31 -146 -16 -30 9 -47 -1 -19 -12 7 -3 5 -6 -5 -6 -10 -1 -18
6 -18 14 0 8 -8 15 -18 15 -26 0 -34 11 -19 28 10 13 8 14 -13 7 -44 -13 -8
14 46 35 55 21 111 24 198 10z m-6626 -103 c55 -73 62 -89 62 -148 0 -45 -2
-50 -15 -39 -18 15 -19 7 -4 -22 14 -26 4 -35 -18 -17 -17 13 -17 12 0 -16 13
-22 5 -16 -27 18 -47 50 -56 73 -87 211 -7 32 -19 64 -26 71 -22 23 -15 24 31
9 33 -12 55 -29 84 -67z m5757 26 c-12 -102 -35 -187 -61 -225 -33 -47 -58
-59 -43 -20 l10 27 -25 -24 c-32 -30 -34 -14 -6 48 25 55 25 65 0 24 -18 -29
-62 -64 -59 -46 4 21 -2 43 -11 43 -5 0 -10 -15 -11 -32 0 -26 -2 -29 -8 -14
-7 18 -8 18 -14 2 -4 -10 -7 -27 -7 -38 0 -14 -6 -19 -22 -16 -19 2 -24 10
-26 43 -5 66 40 140 118 197 82 60 130 87 154 88 17 0 18 -6 11 -57z m-5489
16 c3 -5 -7 -4 -23 3 -41 17 -53 30 -15 17 18 -6 35 -15 38 -20z m6084 27 c0
-2 -7 -6 -15 -10 -8 -3 -15 -1 -15 4 0 6 7 10 15 10 8 0 15 -2 15 -4z m-1057
-32 c42 -4 79 -10 82 -14 2 -4 -5 -16 -18 -26 -12 -10 -16 -12 -9 -4 23 27 12
31 -20 7 -75 -55 -126 -77 -175 -77 -65 1 -134 15 -143 30 -6 9 -13 9 -29 1
-14 -8 -21 -8 -21 -1 0 6 7 13 15 16 8 4 15 10 15 15 0 5 -11 2 -24 -6 -35
-23 -43 -1 -9 23 43 30 140 52 203 47 30 -3 90 -8 133 -11z m-4628 -20 c22
-11 39 -25 37 -32 -1 -8 2 -11 7 -8 5 3 15 -1 22 -10 12 -15 9 -16 -31 -10
-25 3 -39 3 -32 0 23 -11 12 -24 -21 -24 -17 0 -48 -5 -67 -10 -41 -12 -189
-2 -168 11 7 5 27 9 43 9 24 1 27 3 14 10 -10 6 -29 6 -50 0 -44 -13 -49 -13
-49 3 1 6 36 29 78 50 65 33 85 38 127 35 28 -3 69 -13 90 -24z m-1636 -21 c2
-2 0 -3 -6 -3 -6 0 -21 9 -34 21 l-24 20 30 -17 c17 -10 32 -19 34 -21z m6471
7 c-33 -27 -77 -46 -86 -37 -6 6 89 65 106 66 8 0 -1 -12 -20 -29z m-6547 -15
c20 -14 37 -28 37 -31 0 -7 -78 35 -85 46 -11 17 9 11 48 -15z m257 15 c-8 -5
-35 -9 -60 -9 l-45 2 35 7 c19 4 46 8 60 9 20 0 22 -1 10 -9z m900 -25 c52
-44 76 -74 94 -117 18 -45 30 -111 18 -104 -5 3 -17 -3 -26 -13 -15 -16 -21
-17 -53 -6 -46 16 -52 28 -60 120 -5 63 -11 82 -35 112 -15 20 -28 37 -28 39
0 2 11 4 24 4 13 0 43 -16 66 -35z m-692 5 c50 -30 40 -55 -21 -54 -26 0 -44
-2 -40 -5 24 -18 10 -31 -31 -31 -25 0 -47 -4 -50 -8 -3 -5 -15 -8 -28 -6 -13
1 -34 3 -48 4 -24 2 -23 3 5 10 l30 8 -31 1 c-16 0 -39 7 -49 15 -18 13 -15
16 36 41 70 36 94 43 149 44 29 1 57 -6 78 -19z m7012 -14 c29 -14 59 -26 65
-26 6 0 16 -5 23 -12 14 -14 1 -40 -33 -62 -34 -22 -52 -10 -23 15 l23 20 -24
-12 c-32 -15 -142 -4 -157 16 -6 8 -21 15 -32 15 -11 0 -32 4 -47 10 -22 8
-24 13 -15 30 6 12 21 25 33 31 37 15 128 3 187 -25z m-6209 -53 c13 -16 12
-17 -3 -4 -10 7 -18 15 -18 17 0 8 8 3 21 -13z m185 -15 l19 -23 -25 20 c-14
11 -27 21 -29 22 -2 2 0 3 6 3 5 0 18 -10 29 -22z m5841 -29 c54 -28 101 -56
105 -62 8 -14 -19 -47 -39 -47 -8 0 -11 5 -8 10 8 14 -28 13 -42 -1 -16 -16
-148 -26 -139 -10 4 6 15 11 24 11 9 0 44 9 77 20 43 14 49 17 20 12 -64 -11
-148 -8 -152 5 -3 7 -11 9 -20 6 -11 -4 -14 -2 -9 5 5 8 -1 12 -16 13 -23 1
-23 1 2 10 20 7 17 8 -17 6 -49 -3 -53 0 -20 13 21 8 21 9 -6 9 -40 1 -25 18
31 35 78 24 104 20 209 -35z m-7088 14 c12 -26 12 -26 -10 -11 -28 18 -36 38
-16 38 7 0 19 -12 26 -27z m461 12 c31 -16 32 -48 2 -39 -13 4 -12 3 2 -6 17
-11 13 -14 -35 -31 -42 -15 -73 -18 -144 -15 -92 5 -115 7 -115 12 0 2 15 11
33 20 17 9 41 24 52 34 45 39 152 52 205 25z m5411 -34 c46 -26 48 -29 27 -35
-41 -11 -158 -7 -158 5 0 8 -12 10 -36 6 -30 -5 -34 -4 -24 8 10 12 9 15 -6
15 -26 0 -6 16 36 29 49 14 104 5 161 -28z m-4170 8 l24 -13 -25 -7 c-14 -4
-20 -8 -15 -9 22 -5 -145 -29 -204 -29 l-65 -1 49 31 c27 17 58 35 70 40 27
12 136 5 166 -12z m5482 -6 c-7 -2 -19 -2 -25 0 -7 3 -2 5 12 5 14 0 19 -2 13
-5z m-6029 -68 c46 -27 106 -85 88 -85 -6 0 -26 9 -44 19 -18 10 -48 22 -65
26 -28 6 -33 11 -33 36 0 16 3 29 6 29 3 0 24 -11 48 -25z m-921 -6 c18 0 26
-3 18 -6 -11 -5 -11 -7 0 -15 9 -5 -4 -7 -36 -3 l-50 6 28 -16 c31 -18 31 -33
0 -17 -53 29 -68 81 -17 62 14 -6 40 -10 57 -11z m415 1 c23 -10 42 -23 42
-29 0 -5 -33 -22 -72 -37 -40 -16 -76 -33 -80 -38 -3 -5 -32 -11 -63 -14 -37
-3 -52 -8 -43 -13 10 -7 10 -9 -2 -9 -13 0 -13 -1 0 -11 11 -8 8 -9 -14 -4
-52 11 -96 33 -96 48 0 15 141 103 188 117 46 14 95 10 140 -10z m5320 0 c3
-7 0 -10 -7 -6 -6 4 -27 3 -46 -3 -44 -12 -45 -5 -2 14 36 16 49 15 55 -5z
m905 -23 c29 -20 62 -37 73 -37 10 0 24 -4 31 -8 16 -10 4 -62 -14 -62 -13 0
-13 2 -2 17 12 15 12 16 -6 9 -32 -12 -173 -19 -155 -7 16 11 6 16 -84 42 -46
13 -47 14 -20 20 24 6 20 7 -21 9 -27 2 -56 3 -64 2 -11 0 -11 2 0 14 26 26
93 44 151 41 47 -3 67 -10 111 -40z m-913 -1 c0 -3 -4 -8 -10 -11 -5 -3 -10
-1 -10 4 0 6 5 11 10 11 6 0 10 -2 10 -4z m-4795 -40 c46 -20 45 -30 -2 -21
-46 8 -55 13 -48 26 8 12 9 12 50 -5z m5190 -23 c1 -32 -10 -43 -42 -43 -29 0
-29 1 4 39 34 38 38 38 38 4z m-5499 -3 c26 -11 27 -13 12 -24 -10 -7 -15 -15
-12 -18 2 -3 -2 -8 -11 -12 -9 -3 -14 -2 -11 3 3 5 -10 9 -30 8 -20 -1 -31 -3
-24 -5 6 -2 -8 -15 -32 -29 -30 -17 -72 -28 -136 -37 -51 -6 -90 -15 -86 -19
4 -4 3 -7 -3 -7 -6 0 -16 6 -22 14 -10 12 -6 16 22 25 19 6 49 23 68 37 19 15
61 39 94 56 63 31 105 33 171 8z m176 -1 c29 -15 37 -24 30 -31 -8 -8 -23 -3
-52 17 -60 42 -48 50 22 14z m5559 8 c24 -8 71 -32 104 -54 33 -23 75 -45 94
-50 46 -12 49 -28 10 -42 -41 -14 -46 -14 -46 4 0 8 4 12 9 9 4 -3 8 0 8 5 0
7 -25 11 -62 11 -90 0 -137 16 -180 61 -21 21 -42 39 -48 39 -20 0 -10 19 13
23 41 8 54 7 98 -6z m348 -61 c-2 -2 -18 -7 -34 -11 l-30 -6 30 14 c27 13 45
14 34 3z m-6569 -46 c0 -5 -13 -10 -30 -10 -16 0 -30 5 -30 10 0 6 14 10 30
10 17 0 30 -4 30 -10z m6049 -39 c-53 -70 -79 -103 -79 -98 0 4 11 31 25 62
19 41 31 55 47 55 18 0 19 -2 7 -19z m-5852 -7 c-3 -3 -12 -4 -19 -1 -8 3 -5
6 6 6 11 1 17 -2 13 -5z m-537 -38 c36 -8 95 -28 131 -44 96 -44 143 -55 211
-47 32 4 58 5 58 2 0 -2 -28 -15 -62 -27 -35 -13 -90 -36 -122 -51 -33 -16
-61 -29 -63 -29 -2 0 -3 9 -3 20 0 57 -67 106 -159 117 -135 16 -329 -75 -402
-188 -41 -65 -69 -183 -64 -267 6 -84 30 -225 55 -317 18 -69 18 -69 -1 -45
-24 32 -74 152 -97 232 -12 45 -17 99 -17 188 0 119 2 129 34 202 87 205 277
301 501 254z m7461 0 c178 -38 302 -159 343 -337 9 -38 13 -99 11 -163 -6
-188 -78 -354 -233 -536 -22 -25 -4 7 42 75 47 69 62 104 101 230 37 119 47
292 21 360 -10 25 -21 43 -26 40 -4 -2 -8 -46 -9 -96 -2 -113 -13 -171 -45
-246 -39 -92 -215 -453 -221 -453 -2 0 6 25 20 55 13 30 21 55 17 55 -4 0 0 5
8 10 13 8 13 10 -2 10 -10 0 -15 7 -13 18 2 9 4 20 4 23 1 4 14 12 29 18 16 7
36 27 45 47 18 37 13 45 -10 17 -13 -16 -13 -16 -3 5 6 12 17 22 24 22 18 0
78 133 72 162 -2 13 5 39 16 58 10 19 16 26 13 15 -4 -13 -3 -17 4 -10 5 6 13
24 16 40 5 23 4 26 -4 15 -9 -13 -11 -13 -11 2 0 31 -19 29 -35 -4 -8 -18 -13
-24 -9 -13 38 130 21 275 -41 366 -38 54 -122 116 -191 141 -71 25 -167 35
-197 20 -12 -6 -40 -16 -62 -23 -22 -6 -56 -20 -76 -30 -40 -20 -99 -82 -99
-104 0 -17 1 -16 -55 -20 -33 -2 -49 5 -91 37 -87 65 -163 91 -285 96 -86 3
-122 0 -190 -18 -120 -31 -175 -57 -214 -102 -18 -22 -38 -37 -44 -33 -45 27
67 135 140 135 24 0 45 8 62 24 14 13 29 20 34 15 4 -4 49 -2 99 6 50 7 111
11 135 9 143 -17 271 -37 317 -51 47 -14 54 -14 70 -1 26 24 200 94 262 107
119 24 173 25 261 7z m-6373 -3 c-10 -2 -28 -2 -40 0 -13 2 -5 4 17 4 22 1 32
-1 23 -4z m-1084 -121 c3 -5 -21 -17 -52 -26 -79 -25 -164 -72 -205 -113 -59
-58 -82 -140 -103 -363 l-7 -75 -15 35 c-23 55 -28 246 -8 306 44 134 193 241
338 243 26 1 49 -3 52 -7z m1221 -31 c186 -48 328 -153 374 -276 20 -51 22
-73 18 -153 -4 -82 -9 -101 -42 -170 -50 -101 -148 -199 -267 -267 -48 -28
-87 -53 -88 -56 0 -4 28 -12 63 -20 153 -32 288 -134 349 -265 26 -56 32 -82
36 -163 6 -129 -19 -229 -94 -378 -48 -95 -104 -175 -104 -149 0 4 -23 -13
-51 -38 -28 -25 -60 -46 -70 -46 -10 0 -19 -4 -19 -10 0 -5 -13 -10 -28 -10
-17 0 -60 -21 -112 -56 -271 -181 -604 -263 -890 -219 -63 10 -130 19 -147 21
-18 2 -52 9 -75 15 -68 20 -75 19 -48 -2 22 -18 19 -17 -19 3 -138 73 -242
258 -226 404 16 156 119 267 286 310 58 15 148 10 201 -11 23 -9 25 9 38 320
6 143 15 337 20 430 5 94 12 242 16 329 l7 159 -45 -31 c-123 -84 -176 -215
-113 -277 13 -14 31 -25 39 -25 51 0 0 -67 -76 -100 -64 -27 -151 -29 -204 -4
-20 9 -48 35 -62 57 -23 35 -27 51 -27 116 0 64 5 85 30 135 64 127 202 238
406 326 156 67 284 98 509 124 19 2 103 3 185 1 112 -2 170 -8 230 -24z
m-1127 -51 c-2 -5 -9 -6 -16 -1 -7 4 -10 15 -6 25 6 17 8 17 16 2 5 -9 8 -21
6 -26z m7240 25 c57 -17 115 -62 138 -106 12 -23 12 -44 5 -111 -13 -105 -35
-162 -156 -389 -173 -324 -303 -583 -302 -604 0 -11 -1 -58 -2 -105 -2 -60 -5
-78 -11 -60 -6 19 -8 10 -9 -35 -4 -231 -49 -421 -130 -547 -28 -43 -53 -78
-56 -78 -4 0 3 13 15 30 20 28 20 31 4 55 -9 14 -18 25 -19 25 -2 0 -17 -22
-35 -50 -48 -74 -172 -181 -267 -228 -129 -65 -205 -83 -378 -89 -153 -5 -153
-5 -350 42 -38 9 -82 17 -97 18 -61 5 -168 151 -183 251 -9 56 10 145 38 188
45 65 161 115 201 85 19 -14 19 -16 3 -40 -37 -57 -10 -174 55 -239 86 -86
246 -124 393 -94 116 24 189 63 266 143 36 37 77 88 92 113 66 114 97 284 97
528 0 121 -13 171 -100 387 -18 44 -81 210 -141 369 -113 300 -138 349 -197
375 -18 8 -31 20 -29 25 7 23 114 76 185 92 107 24 239 16 315 -19 32 -14 57
-28 57 -31 0 -3 -11 -22 -25 -42 -14 -20 -25 -49 -25 -64 0 -14 44 -160 99
-323 l99 -297 42 88 c94 195 199 430 214 481 29 98 16 153 -41 182 l-32 16 23
22 c26 25 101 49 157 50 19 1 59 -6 87 -14z m-7310 -2 c-10 -2 -26 -2 -35 0
-10 3 -2 5 17 5 19 0 27 -2 18 -5z m-88 -17 c0 -2 -16 -14 -36 -26 -42 -26
-40 -33 6 -20 64 18 65 -2 1 -55 -33 -27 -77 -70 -99 -95 -33 -39 -37 -46 -21
-48 48 -4 48 -4 22 -45 -14 -22 -36 -69 -50 -106 -22 -59 -24 -77 -21 -166 3
-55 8 -109 12 -120 7 -16 6 -17 -4 -5 -18 24 -7 -119 13 -160 l17 -35 -24 27
c-49 55 -76 159 -77 300 -1 98 61 358 97 406 14 17 20 32 15 32 -19 0 -59 -74
-76 -140 -9 -35 -23 -76 -31 -90 -14 -23 -15 -19 -10 57 5 100 45 197 95 232
47 34 171 75 171 57z m3163 -43 c-7 -2 -19 -2 -25 0 -7 3 -2 5 12 5 14 0 19
-2 13 -5z m587 0 c0 -1 -31 -21 -69 -43 -38 -23 -77 -53 -87 -67 -14 -22 -18
-24 -25 -11 -15 26 -145 97 -206 113 -55 14 -48 14 165 12 122 -1 222 -3 222
-4z m-3680 -37 c0 -2 -17 -16 -37 -31 l-38 -27 33 31 c30 29 42 37 42 27z
m5865 -23 c194 -43 319 -148 361 -300 47 -173 -60 -408 -236 -518 -25 -15 -46
-29 -48 -30 -3 -3 65 -148 188 -400 70 -144 98 -190 139 -232 37 -38 60 -53
83 -55 l33 -3 -39 -37 c-53 -50 -115 -74 -155 -60 -29 10 -46 0 -18 -11 33
-14 -105 -5 -146 9 -111 38 -239 258 -357 617 l-22 68 -42 -6 c-22 -4 -43 -9
-46 -12 -3 -3 -5 -102 -5 -221 0 -209 1 -219 23 -256 14 -24 20 -42 14 -48 -5
-5 -38 -12 -73 -16 -49 -4 -58 -7 -39 -13 17 -5 6 -7 -37 -8 -35 -1 -63 3 -63
9 0 6 -10 6 -27 -1 -16 -6 -66 -13 -113 -16 -78 -5 -87 -4 -104 16 -19 21 -19
22 2 37 12 8 32 34 43 57 20 38 22 65 30 352 4 170 13 432 19 582 13 317 8
372 -40 415 l-30 28 23 14 c90 59 491 82 682 39z m-845 -18 c40 -21 54 -75 45
-174 -8 -87 -25 -135 -52 -150 -16 -8 -24 -4 -46 25 -56 70 -141 90 -308 73
-63 -6 -115 -12 -115 -12 -1 -1 -5 -88 -9 -194 l-7 -192 39 6 c21 3 75 16 120
29 134 38 174 18 181 -91 5 -75 -10 -125 -50 -171 -36 -41 -41 -41 -56 -10
-17 37 -73 51 -156 38 -38 -6 -71 -14 -74 -17 -3 -3 -8 -109 -10 -237 l-5
-231 109 7 c159 10 205 15 244 28 50 16 96 48 115 81 23 38 57 34 66 -8 14
-63 8 -209 -9 -255 -31 -79 -38 -81 -435 -84 -188 -2 -323 0 -299 3 l44 6 -30
18 c-25 14 -35 15 -56 6 -28 -13 -34 -28 -13 -30 6 -1 -10 -5 -38 -9 -38 -6
-54 -4 -67 8 -23 19 -23 27 3 61 20 28 21 44 29 462 5 239 12 514 16 611 8
224 2 282 -37 320 -16 16 -29 31 -29 34 0 2 14 10 30 19 29 15 232 27 635 38
55 2 122 4 148 5 27 1 61 -5 77 -13z m-1001 -40 c51 -28 99 -79 84 -88 -5 -2
-21 -7 -36 -11 -52 -12 -104 -56 -162 -137 -57 -80 -203 -303 -241 -368 l-19
-35 77 -151 c43 -84 102 -210 133 -279 99 -227 162 -330 220 -361 19 -11 35
-22 35 -25 -1 -11 -36 -48 -57 -59 -28 -14 -44 -14 -19 0 34 20 -3 28 -53 12
-60 -21 -77 -33 -59 -45 25 -18 -121 1 -160 21 -75 38 -143 136 -217 316 -21
50 -57 135 -80 190 -23 55 -45 108 -49 118 -5 15 -15 5 -52 -50 -26 -37 -51
-69 -55 -71 -5 -2 -9 -89 -9 -193 0 -170 2 -194 20 -229 l20 -39 -22 -15 c-17
-11 -52 -15 -138 -14 -132 1 -230 -9 -209 -23 10 -6 4 -9 -17 -9 -18 0 -42 8
-55 19 l-23 19 31 36 c18 19 37 53 42 73 9 36 32 809 31 1086 0 141 -11 184
-54 212 -31 21 -27 29 26 56 151 77 491 45 415 -39 -32 -35 -39 -79 -43 -282
-2 -113 -6 -227 -9 -254 l-4 -49 77 129 c43 71 113 187 156 257 93 153 107
184 95 215 -5 12 -13 22 -19 22 -47 0 55 41 185 74 11 3 52 4 91 2 55 -2 82
-9 123 -31z m-4129 -18 c0 -2 -12 -14 -27 -28 l-28 -24 24 28 c23 25 31 32 31
24z m6864 -24 c-7 -26 -6 -27 11 -13 10 8 16 10 12 3 -6 -10 16 -97 70 -283 3
-11 1 -10 -6 2 -21 32 -101 287 -95 302 10 26 15 18 8 -11z m-4101 -37 l27
-18 -30 -41 c-18 -25 -30 -53 -30 -72 0 -49 38 -344 94 -730 64 -438 78 -496
127 -550 18 -20 17 -20 -59 -23 -42 -2 -85 -8 -94 -13 -10 -6 -23 -7 -29 -4
-5 4 -17 1 -26 -7 -14 -11 -12 -14 18 -19 22 -3 -8 -8 -83 -13 -129 -9 -162
-5 -195 26 l-22 21 29 29 c48 48 55 89 36 219 -9 62 -19 115 -22 118 -8 9
-174 8 -174 -1 0 -4 -27 -12 -60 -19 -36 -7 -64 -18 -69 -28 -5 -9 -14 -47
-21 -86 -11 -54 -15 -64 -20 -45 -5 22 -7 23 -13 7 -10 -27 -9 -67 3 -67 6 0
10 -14 10 -30 0 -31 31 -104 50 -115 5 -3 10 -11 10 -16 0 -6 -4 -8 -8 -5 -15
9 -82 -17 -82 -31 0 -7 -5 -13 -11 -13 -5 0 -8 3 -6 8 3 4 -41 3 -96 -2 -177
-15 -232 -13 -256 8 l-21 19 40 38 c44 43 65 99 100 274 12 61 44 211 72 335
74 337 138 651 138 683 0 34 -24 82 -47 96 -17 10 -16 13 8 35 29 25 16 23
354 42 61 4 112 8 115 11 3 3 52 3 110 1 82 -2 111 -7 133 -22z m787 -21 c11
-13 10 -14 -4 -9 -10 4 -16 1 -16 -7 0 -7 -2 -10 -5 -7 -5 5 4 38 10 38 1 0 8
-7 15 -15z m-1751 -150 c0 -33 -2 -45 -8 -36 -7 11 -10 10 -13 -5 -2 -10 -4 8
-3 41 0 33 -3 76 -7 95 l-7 35 19 -40 c10 -22 19 -62 19 -90z m1708 73 c-3 -8
-6 -5 -6 6 -1 11 2 17 5 13 3 -3 4 -12 1 -19z m643 -1 c0 -2 -19 -21 -42 -42
l-43 -40 40 43 c36 39 45 47 45 39z m1077 -49 c-3 -7 -5 -2 -5 12 0 14 2 19 5
13 2 -7 2 -19 0 -25z m-2434 7 c-3 -9 -8 -14 -10 -11 -3 3 -2 9 2 15 9 16 15
13 8 -4z m714 -7 c-3 -8 -6 -5 -6 6 -1 11 2 17 5 13 3 -3 4 -12 1 -19z m20 0
c-3 -8 -6 -5 -6 6 -1 11 2 17 5 13 3 -3 4 -12 1 -19z m-710 -55 c-3 -10 -5 -2
-5 17 0 19 2 27 5 18 2 -10 2 -26 0 -35z m2403 8 c0 -6 -11 -23 -25 -38 l-26
-28 23 37 c25 40 28 43 28 29z m-3453 -63 c-3 -8 -6 -5 -6 6 -1 11 2 17 5 13
3 -3 4 -12 1 -19z m-1430 -25 c-3 -10 -5 -4 -5 12 0 17 2 24 5 18 2 -7 2 -21
0 -30z m7264 -142 c-34 -67 -63 -121 -66 -121 -3 0 15 39 39 88 24 48 51 105
60 126 9 22 19 37 22 34 3 -3 -22 -60 -55 -127z m-1183 49 c0 -32 -1 -33 -8
-10 -6 19 -8 21 -9 6 -1 -11 -4 -17 -7 -13 -3 3 -3 25 1 49 6 35 9 39 16 23 4
-11 7 -36 7 -55z m-4713 -30 c-9 -16 -18 -30 -21 -30 -2 0 2 14 11 30 9 17 18
30 21 30 2 0 -2 -13 -11 -30z m-35 -53 c0 -2 -10 -12 -22 -23 l-23 -19 19 23
c18 21 26 27 26 19z m-1395 -97 c-3 -5 -16 -10 -28 -9 -20 1 -20 2 3 9 14 4
26 8 28 9 2 1 0 -3 -3 -9z m6025 -34 c0 -2 -8 -10 -17 -17 -16 -13 -17 -12 -4
4 13 16 21 21 21 13z m-6310 -142 c0 -3 -13 4 -30 16 -16 12 -30 24 -30 26 0
3 14 -4 30 -16 17 -12 30 -24 30 -26z m6190 22 c0 -2 -8 -10 -17 -17 -16 -13
-17 -12 -4 4 13 16 21 21 21 13z m-3263 -213 c-3 -10 -5 -4 -5 12 0 17 2 24 5
18 2 -7 2 -21 0 -30z m1790 -80 c-2 -21 -4 -6 -4 32 0 39 2 55 4 38 2 -18 2
-50 0 -70z m20 25 c-2 -13 -4 -3 -4 22 0 25 2 35 4 23 2 -13 2 -33 0 -45z
m-1787 -83 c0 -8 -4 -15 -8 -15 -5 0 -9 7 -9 15 0 8 4 15 9 15 4 0 8 -7 8 -15z
m-2789 -56 c-259 -70 -410 -271 -390 -522 3 -46 10 -93 14 -106 5 -15 4 -21
-3 -17 -6 3 -13 -3 -17 -14 -3 -11 -10 -20 -14 -20 -5 0 -7 -12 -4 -27 3 -28
3 -28 -7 -4 -18 41 -37 183 -33 246 15 263 229 482 473 483 l55 1 -74 -20z
m5080 -166 c-8 -14 -10 -7 -11 32 0 28 4 61 8 75 5 19 8 11 10 -32 2 -32 -2
-66 -7 -75z m-2984 65 c-3 -7 -5 -2 -5 12 0 14 2 19 5 13 2 -7 2 -19 0 -25z
m5040 -95 c-3 -10 -5 -2 -5 17 0 19 2 27 5 18 2 -10 2 -26 0 -35z m-3607 -148
c0 -5 -5 -3 -10 5 -5 8 -10 20 -10 25 0 6 5 3 10 -5 5 -8 10 -19 10 -25z
m1530 32 c0 -2 -10 -12 -22 -23 l-23 -19 19 23 c18 21 26 27 26 19z m-1992
-24 c-10 -2 -26 -2 -35 0 -10 3 -2 5 17 5 19 0 27 -2 18 -5z m847 -11 c-3 -3
-11 0 -18 7 -9 10 -8 11 6 5 10 -3 15 -9 12 -12z m-495 -28 c53 -77 60 -90 60
-106 0 -10 -3 -18 -7 -17 -18 1 -93 111 -93 134 0 34 11 31 40 -11z m2940 12
c0 -2 -8 -10 -17 -17 -16 -13 -17 -12 -4 4 13 16 21 21 21 13z m-4226 -32 c7
-19 8 -69 1 -62 -3 2 -6 17 -7 32 l-2 27 -18 -23 c-18 -23 -18 -23 -7 10 12
35 23 41 33 16z m1462 -8 c28 -23 28 -23 6 -30 -12 -4 -22 -14 -22 -22 0 -8
-12 -20 -26 -26 -21 -10 -27 -9 -35 3 -15 24 -10 58 11 79 26 26 33 25 66 -4z
m-889 -47 c-9 -6 -15 -14 -12 -20 4 -5 2 -9 -4 -9 -20 0 51 -182 97 -248 11
-15 23 -41 26 -59 8 -33 3 -41 -53 -82 -14 -10 -25 -29 -25 -44 -1 -15 -14
-39 -28 -54 -15 -16 -38 -48 -52 -73 -23 -40 -26 -42 -26 -19 0 14 9 34 20 44
11 10 20 28 20 39 -1 16 -5 13 -20 -16 -23 -43 -40 -56 -40 -31 0 20 24 61 48
80 12 10 16 44 18 175 1 90 -1 178 -3 196 -5 32 -6 32 -24 16 -24 -21 -24 -15
-1 33 20 45 51 83 66 83 6 0 3 -5 -7 -11z m46 5 c-7 -3 -9 -13 -6 -22 5 -13 3
-14 -7 -5 -14 13 -5 33 13 32 9 0 9 -2 0 -5z m-1374 -110 c-24 -25 -62 -60
-84 -77 -22 -18 -4 4 40 49 44 44 82 79 84 77 3 -2 -15 -24 -40 -49z m2074 -9
c29 -21 19 -59 -17 -63 -24 -3 -28 -1 -24 16 3 11 2 26 -3 33 -17 28 13 38 44
14z m-2013 -28 c0 -2 -12 -14 -27 -28 l-28 -24 24 28 c23 25 31 32 31 24z
m1085 -49 c11 -57 16 -68 29 -68 8 0 11 -10 8 -29 -2 -16 0 -37 5 -46 7 -12
13 -3 26 42 9 33 25 67 36 78 l21 18 0 -129 c0 -123 -1 -132 -30 -189 -16 -33
-30 -73 -31 -90 -2 -67 -17 20 -18 107 -1 85 -2 88 -33 117 -42 39 -61 40 -24
2 33 -35 43 -82 35 -166 -3 -33 -6 -54 -7 -46 -2 11 -5 10 -16 -4 -13 -17 -16
-15 -45 36 -17 30 -34 69 -37 87 -11 57 1 140 25 172 12 17 17 30 12 30 -6 0
-8 13 -4 33 15 80 37 100 48 45z m2470 7 c26 -7 65 -28 86 -44 21 -17 46 -30
56 -29 46 4 67 -5 113 -50 42 -41 50 -54 50 -85 0 -24 -5 -40 -15 -43 -21 -8
-19 -31 4 -44 20 -10 88 -138 93 -175 2 -13 -5 -23 -19 -30 -31 -13 -29 -27 2
-19 23 6 25 4 26 -32 l1 -39 9 40 c13 53 -2 109 -52 202 -39 74 -48 100 -29
88 6 -4 10 5 10 21 0 26 1 27 20 9 10 -9 24 -33 31 -52 6 -20 24 -56 40 -82
26 -42 41 -90 55 -176 4 -25 3 -27 -6 -12 -15 24 -30 21 -30 -5 0 -21 0 -21
-14 -3 -16 22 -15 32 -19 -106 -1 -52 -9 -91 -24 -125 -11 -27 -26 -65 -32
-84 l-10 -35 5 43 c3 26 1 42 -6 42 -5 0 -10 -8 -10 -18 0 -11 -13 -39 -29
-63 -16 -24 -28 -47 -25 -51 12 -19 -39 4 -59 27 -22 26 -24 27 -59 12 -42
-17 -68 -51 -68 -87 1 -30 22 -60 43 -60 18 0 81 57 89 80 4 13 7 13 21 2 15
-12 15 -16 0 -47 -9 -19 -20 -32 -24 -29 -4 2 -11 -1 -15 -7 -4 -8 -3 -9 4 -5
18 11 14 -10 -4 -24 -8 -8 -14 -9 -12 -3 2 6 -1 11 -7 11 -5 0 -9 -4 -8 -9 2
-5 -3 -9 -11 -9 -8 0 -18 -5 -22 -12 -5 -7 -3 -8 6 -3 9 5 11 4 6 -3 -5 -9
-13 -9 -27 -2 -15 9 -25 7 -46 -10 -18 -14 -35 -19 -50 -15 -13 3 -23 1 -23
-4 0 -15 -33 -22 -42 -9 -6 10 -8 9 -8 -3 0 -12 -14 -18 -52 -23 -86 -10 -98
-8 -98 13 0 16 -9 21 -57 26 -85 8 -175 26 -196 36 -13 8 -15 14 -7 29 33 62
-8 153 -76 166 -76 14 -102 -73 -43 -141 21 -23 25 -33 14 -28 -14 5 -16 3
-10 -8 5 -8 -4 -3 -18 10 -15 14 -27 30 -27 37 0 7 -25 41 -55 76 -57 65 -85
113 -85 144 0 12 -3 15 -10 8 -7 -7 -5 -24 5 -54 8 -24 13 -45 10 -48 -3 -3
-5 1 -5 9 0 11 -2 11 -9 1 -13 -21 -36 46 -34 101 1 26 -2 45 -7 42 -37 -23
-37 253 0 361 24 70 80 157 115 180 14 9 25 22 25 29 0 20 48 74 81 90 42 22
53 18 30 -11 -11 -15 -18 -30 -15 -35 3 -5 20 12 38 38 44 65 104 109 166 122
73 16 129 14 136 -4 8 -19 24 -20 24 -1 0 8 6 17 13 20 19 9 129 -3 182 -19z
m-1677 -25 l-1 -40 -46 0 c-54 0 -149 -24 -165 -41 -8 -9 -6 -10 9 -5 120 43
191 40 247 -10 20 -18 61 -40 92 -50 48 -15 63 -16 108 -5 57 13 118 61 118
93 0 54 119 -20 135 -84 6 -23 2 -30 -27 -48 -50 -30 -62 -27 -42 13 l17 32
-25 -26 c-14 -15 -39 -30 -57 -34 -17 -4 -29 -10 -26 -15 10 -17 -58 -23 -270
-25 -241 -2 -395 11 -421 37 -29 29 4 84 90 147 88 65 163 96 243 100 20 1 23
-3 21 -39z m3442 -14 c0 -2 -8 -10 -17 -17 -16 -13 -17 -12 -4 4 13 16 21 21
21 13z m50 -39 c-17 -24 -57 -68 -88 -98 l-56 -54 60 65 c33 36 70 80 83 98
12 17 25 32 27 32 3 0 -9 -20 -26 -43z m-4507 -8 c34 -60 19 -72 -53 -43 -26
10 -54 14 -77 11 -19 -4 -34 -4 -31 -2 9 9 123 65 133 65 6 0 18 -14 28 -31z
m1800 -22 c18 11 107 11 107 0 0 -5 -8 -11 -18 -14 -10 -2 -30 -24 -45 -49
-14 -24 -31 -44 -36 -44 -9 0 -61 85 -61 101 0 4 8 15 18 25 16 17 17 17 20
-4 2 -14 8 -20 15 -15z m-49 -47 c14 -24 16 -31 5 -25 -28 16 -49 38 -49 52 0
23 23 9 44 -27z m2636 36 c0 -2 -8 -10 -17 -17 -16 -13 -17 -12 -4 4 13 16 21
21 21 13z m-4544 -74 c171 -71 293 -184 344 -317 5 -14 8 -25 6 -25 -3 0 -25
21 -51 48 -26 26 -44 41 -40 34 4 -7 9 -27 12 -45 l5 -32 -22 25 c-21 25 -21
25 -17 3 7 -32 -11 -29 -58 9 -21 18 -48 32 -59 30 -15 -1 -38 17 -76 62 -30
35 -57 62 -59 60 -2 -2 15 -28 38 -57 22 -30 41 -57 41 -60 0 -18 -40 -3 -86
32 -62 47 -144 96 -144 86 0 -4 8 -14 18 -21 9 -8 -8 -3 -38 11 -30 14 -64 25
-75 24 -17 0 -17 -2 5 -12 14 -6 47 -21 74 -34 28 -13 57 -23 65 -23 9 0 36
-19 60 -43 l45 -42 -115 -6 c-88 -5 -119 -3 -136 8 -26 15 -31 2 -7 -21 14
-15 9 -16 -53 -18 -37 -1 -76 -2 -85 -1 -10 0 -18 -4 -18 -8 0 -6 -41 -11
-197 -24 -23 -2 -50 -8 -60 -14 -15 -8 -9 -11 27 -12 l45 -1 -50 -9 c-27 -5
-66 -10 -86 -10 -20 -1 -43 -5 -50 -10 -27 -17 71 -9 196 16 147 29 275 39
365 27 l65 -8 -40 -22 c-76 -41 -95 -64 -25 -31 36 18 72 38 81 45 12 11 31
12 94 4 92 -12 226 -46 251 -65 21 -15 16 -15 -96 4 -36 6 -87 10 -115 10 -47
-1 -46 -2 20 -10 135 -17 142 -23 63 -60 -46 -20 -137 -78 -234 -147 -44 -31
-132 -45 -238 -37 -50 4 -102 12 -116 17 -17 6 -22 6 -15 -1 11 -11 119 -41
148 -41 10 0 26 -7 34 -16 9 -9 25 -13 37 -10 21 5 21 5 2 -10 -13 -9 -23 -11
-30 -4 -6 6 -14 6 -23 -1 -26 -23 -292 80 -338 131 -19 21 -19 21 3 27 12 3
22 9 22 14 0 5 15 1 34 -7 25 -13 38 -14 52 -6 17 10 17 11 -7 12 -14 0 -65
25 -114 55 -48 30 -91 55 -96 55 -5 0 -29 10 -54 22 l-45 22 128 68 c70 37
146 70 170 74 49 7 52 15 15 40 -16 9 -58 48 -95 85 l-67 68 37 6 c20 4 91 24
158 45 144 47 281 66 369 52 33 -6 62 -8 64 -6 2 2 -2 11 -10 20 -13 16 -10
17 31 11 25 -3 77 -19 116 -35z m4514 -36 c0 -2 -8 -10 -17 -17 -16 -13 -17
-12 -4 4 13 16 21 21 21 13z m-2943 -12 c-3 -3 -12 -4 -19 -1 -8 3 -5 6 6 6
11 1 17 -2 13 -5z m206 -17 c46 -20 130 -116 147 -168 7 -24 12 -71 11 -104
-3 -75 -33 -126 -94 -156 -23 -12 -70 -48 -104 -80 -70 -67 -91 -72 -147 -34
-20 14 -41 25 -46 25 -16 0 -11 -18 6 -22 14 -3 13 -7 -6 -30 -23 -30 -56 -36
-91 -18 -13 7 -19 7 -19 0 0 -5 -16 -10 -35 -10 -25 0 -44 8 -62 26 -31 31
-57 27 -110 -18 -32 -27 -34 -28 -14 -5 14 15 22 29 19 32 -3 3 -18 -13 -33
-35 -41 -60 -75 -56 -140 15 -61 66 -90 71 -129 24 -14 -17 -26 -35 -26 -40 0
-18 -40 -49 -64 -49 -30 0 -63 40 -72 86 -3 19 -14 40 -24 47 -9 6 -17 17 -16
22 0 6 -11 11 -26 13 -16 2 -28 -1 -28 -7 0 -6 10 -11 23 -11 19 -1 20 -2 5
-10 -9 -6 -14 -18 -11 -28 7 -28 -14 -72 -35 -72 -30 0 -48 28 -87 135 -45
122 -44 175 4 277 36 76 90 128 158 154 40 16 54 16 161 3 72 -9 211 -14 362
-14 217 1 254 3 320 22 41 11 83 24 93 28 10 4 17 3 17 -4 0 -6 5 -11 10 -11
6 0 10 7 10 15 0 19 30 19 73 2z m-4138 -137 c27 -27 47 -50 44 -50 -3 0 -27
23 -54 50 -27 28 -47 50 -44 50 3 0 27 -22 54 -50z m105 -87 c0 -7 -39 17 -46
28 -3 6 5 3 20 -6 14 -10 26 -19 26 -22z m2558 -28 c-3 -3 -9 2 -12 12 -6 14
-5 15 5 6 7 -7 10 -15 7 -18z m-393 5 c3 -5 -3 -10 -15 -10 -12 0 -18 5 -15
10 3 6 10 10 15 10 5 0 12 -4 15 -10z m-785 -31 c-32 -27 -98 -54 -108 -44 -4
3 127 74 138 74 3 0 -11 -13 -30 -30z m-1103 -65 c-3 -3 -12 -4 -19 -1 -8 3
-5 6 6 6 11 1 17 -2 13 -5z m1143 -178 c61 -60 109 -110 107 -112 -8 -8 -161
37 -207 62 -50 27 -170 150 -170 175 0 12 31 -4 50 -26 7 -9 27 -23 44 -31 27
-14 25 -10 -16 31 -46 44 -47 46 -26 54 34 12 90 -28 218 -153z m4290 124 c0
-3 -7 -7 -15 -7 -8 0 -15 9 -15 20 0 16 3 17 15 7 8 -7 15 -16 15 -20z m-1533
-62 c-19 -29 -51 -42 -84 -36 -29 5 -21 30 17 54 19 12 44 32 55 43 l20 21 6
-28 c3 -18 -1 -36 -14 -54z m1966 55 c-7 -2 -21 -2 -30 0 -10 3 -4 5 12 5 17
0 24 -2 18 -5z m-365 -22 c51 -26 191 -66 286 -83 l79 -14 -54 -37 c-94 -64
-126 -71 -262 -56 -76 8 -116 16 -114 23 2 6 13 12 25 14 25 4 28 15 9 31 -10
8 -17 7 -26 -2 -11 -10 -11 -8 -1 11 6 13 27 33 46 44 40 24 44 31 8 18 -38
-15 -42 -12 -14 12 l25 20 -43 -7 -44 -7 17 26 c21 31 17 31 63 7z m-222 -105
c-14 -28 -27 -67 -29 -86 -4 -33 -4 -32 -5 8 -1 24 -7 42 -14 42 -7 0 -5 6 4
18 25 28 48 79 49 109 1 27 1 27 10 -6 9 -28 6 -42 -15 -85z m-4407 65 c42
-81 127 -135 435 -275 44 -20 76 -39 73 -42 -14 -14 -173 40 -308 106 -32 15
-57 25 -54 20 9 -14 124 -74 230 -120 117 -51 112 -47 97 -62 -9 -9 -22 -8
-53 1 -72 22 -75 22 -34 1 22 -11 48 -20 58 -20 9 0 17 -2 17 -4 0 -17 -47
-109 -82 -160 -23 -33 -43 -62 -44 -64 -1 -2 -41 20 -90 49 -136 79 -187 106
-214 113 -14 4 7 -10 46 -31 38 -21 91 -53 116 -70 26 -18 52 -33 58 -33 6 0
9 -4 5 -9 -3 -5 0 -13 6 -17 8 -4 9 -3 5 4 -12 21 10 13 30 -10 12 -14 14 -18
4 -13 -8 4 -4 -4 9 -18 20 -22 21 -27 8 -27 -31 0 -132 43 -218 92 -122 69
-176 87 -297 99 -58 5 -108 12 -110 14 -2 2 10 10 26 19 92 48 227 276 243
411 4 39 8 73 9 78 1 16 10 5 29 -32z m396 -29 c-3 -3 -11 0 -18 7 -9 10 -8
11 6 5 10 -3 15 -9 12 -12z m970 -39 c-55 -19 -113 -39 -130 -43 l-30 -8 30
-1 c27 0 86 10 140 25 52 15 -164 -145 -264 -195 -34 -18 -70 -30 -78 -27 -9
4 -11 2 -7 -6 5 -8 2 -9 -9 -5 -10 4 -32 4 -49 0 -27 -5 -29 -7 -13 -13 15 -5
4 -11 -40 -19 -77 -16 -86 -19 -52 -20 15 -1 27 -7 28 -13 0 -10 2 -10 6 0 2
6 17 12 33 12 46 0 198 56 269 99 36 22 67 38 69 36 8 -7 -40 -134 -60 -160
-34 -43 -85 -62 -164 -61 -54 1 -70 -2 -67 -11 7 -17 -22 -17 -39 0 -7 6 -19
12 -25 13 -29 2 -34 4 -29 13 3 5 -5 9 -18 9 -28 0 -125 21 -145 32 -10 5 0
15 35 35 117 67 175 110 299 225 95 88 178 116 350 118 l60 1 -100 -36z m3746
-20 c17 -53 95 -195 138 -253 35 -46 108 -114 133 -123 28 -10 -4 -18 -98 -28
-119 -11 -147 -21 -333 -116 -80 -40 -150 -73 -158 -73 -21 0 -15 28 8 35 11
4 18 9 16 12 -3 2 -14 0 -26 -6 -11 -6 -22 -7 -25 -2 -7 11 234 155 295 176
24 9 87 20 139 24 94 8 95 8 25 9 -122 2 -227 -33 -375 -125 -46 -29 -87 -52
-91 -51 -4 2 -30 32 -58 67 -34 42 -51 73 -51 91 0 16 -3 35 -6 44 -4 11 5 18
33 25 39 11 76 31 58 31 -5 0 -31 -7 -57 -15 -46 -13 -48 -13 -63 8 -14 20
-14 22 2 25 40 8 192 67 254 99 36 18 81 50 100 70 l34 37 -41 -32 c-23 -18
-69 -45 -102 -62 -68 -33 -220 -80 -263 -80 -38 0 -47 18 -12 25 121 23 405
149 452 199 35 37 57 33 72 -11z m-2171 -110 c-39 -110 -101 -303 -113 -348
-4 -18 -5 -18 -6 3 0 12 -5 22 -10 22 -11 0 30 169 65 268 14 39 30 72 36 72
5 0 21 25 35 56 41 90 38 54 -7 -73z m-1424 82 c-7 -11 -21 -46 -30 -78 -18
-63 -71 -130 -133 -168 -37 -23 -39 -43 -6 -45 13 -1 19 4 16 11 -2 7 0 16 6
20 6 3 11 0 12 -7 0 -7 4 -4 9 7 5 11 9 14 9 6 1 -11 4 -11 19 0 9 7 6 1 -8
-15 -14 -16 -45 -41 -70 -57 -44 -27 -45 -28 -52 -8 -5 11 -3 29 2 39 6 10 10
21 10 24 0 11 -36 6 -49 -6 -11 -11 -12 -10 -6 1 4 7 17 48 29 91 19 71 25 80
79 127 67 59 111 83 149 80 25 -2 26 -4 14 -22z m73 -4 c10 -6 12 -19 7 -47
-5 -26 -10 -33 -16 -24 -6 10 -9 7 -13 -11 -3 -15 -5 -9 -6 18 0 23 -4 48 -7
57 -7 18 12 21 35 7z m-64 -118 c-9 -24 -28 -51 -41 -60 -13 -8 -21 -20 -17
-26 3 -6 1 -7 -5 -3 -11 7 -1 47 17 71 5 5 14 28 21 50 7 22 18 49 24 60 19
35 20 -41 1 -92z m2822 85 c-3 -8 -6 -5 -6 6 -1 11 2 17 5 13 3 -3 4 -12 1
-19z m-2519 -55 c11 -21 34 -80 52 -131 37 -105 50 -115 25 -20 -24 87 -30
125 -17 113 12 -12 67 -181 82 -250 6 -27 13 -58 16 -67 4 -14 -1 -18 -25 -18
-34 0 -54 29 -86 130 -9 30 -37 101 -61 157 -24 56 -44 107 -44 112 0 6 9 11
20 11 13 0 26 -13 38 -37z m-1368 -10 l75 -23 -55 4 c-67 6 -119 21 -145 41
-19 14 -18 14 15 8 19 -3 69 -17 110 -30z m2410 28 c0 -2 -24 -81 -54 -175
-30 -94 -58 -187 -61 -208 -6 -29 -12 -37 -33 -41 -15 -3 -29 -4 -30 -2 -7 7
20 121 43 180 12 33 35 98 50 145 15 47 32 90 37 97 9 11 48 14 48 4z m1835
-13 c-28 -15 -64 -23 -121 -26 -111 -6 -120 13 -11 23 45 3 98 10 117 15 55
13 58 11 15 -12z m-2210 -323 l-7 -100 -66 3 -67 3 2 182 c1 100 2 187 2 194
1 19 69 37 86 23 11 -9 15 -9 15 -1 0 6 7 11 15 11 8 0 16 6 17 13 6 34 8
-242 3 -328z m220 298 c-5 -23 -4 -25 9 -14 14 11 16 11 16 -5 0 -16 2 -17 10
-4 8 11 9 7 4 -15 -19 -91 -47 -194 -59 -220 -7 -17 -17 -54 -21 -83 l-7 -52
-36 1 -36 2 35 7 35 7 -37 2 c-21 0 -39 -4 -42 -11 -6 -14 -2 30 15 202 10
102 25 169 30 133 1 -7 3 -17 4 -23 1 -5 3 -17 4 -26 2 -28 20 -4 36 48 14 47
31 78 42 78 3 0 2 -12 -2 -27z m-574 -52 c7 -20 13 -45 15 -56 11 -85 27 -171
34 -179 8 -8 7 13 -11 152 -13 102 -13 102 18 102 14 0 34 7 44 16 17 15 18
13 24 -23 11 -66 13 -69 14 -25 1 44 24 60 35 25 9 -33 29 -343 22 -350 -9 -9
-296 23 -307 34 -7 7 -89 311 -89 330 0 2 8 3 18 2 9 -1 25 1 35 6 26 11 50
-2 44 -25 -3 -11 -2 -20 1 -20 4 0 8 -22 9 -48 1 -27 8 -64 16 -83 l15 -34 2
30 c1 17 3 66 4 110 3 114 3 111 26 90 10 -9 25 -34 31 -54z m427 -91 c-12
-233 -16 -260 -39 -260 -16 0 -18 6 -15 33 3 17 8 107 11 198 7 158 8 167 29
177 11 5 21 9 22 8 0 0 -3 -71 -8 -156z m1592 153 c0 -5 -18 -23 -40 -41 -36
-30 -40 -31 -40 -13 0 27 34 61 60 61 11 0 20 -3 20 -7z m-2609 -64 c-11 -24
-20 -41 -20 -37 -1 12 31 89 35 85 3 -2 -4 -24 -15 -48z m1769 -31 c0 -16 -21
-7 -52 23 -22 20 -29 32 -20 36 6 2 10 10 6 16 -3 7 11 -6 30 -28 20 -22 36
-43 36 -47z m130 67 c23 -27 -3 -36 -27 -9 -19 22 -20 24 -3 24 9 0 23 -7 30
-15z m860 -49 c-13 -36 -31 -25 -20 14 5 16 12 35 17 42 13 20 16 -23 3 -56z
m-1163 -98 c21 -24 45 -52 53 -63 13 -17 11 -17 -17 3 l-32 22 -3 -22 c-3 -20
-9 -23 -60 -26 -54 -3 -74 7 -48 23 6 4 8 10 5 15 -3 5 4 29 15 52 21 43 21
43 0 19 -11 -13 -20 -29 -20 -36 0 -7 -7 -18 -15 -25 -10 -9 -7 9 11 61 14 41
28 81 30 89 3 9 12 -1 24 -27 10 -23 36 -61 57 -85z m1339 90 c36 -32 84 -99
84 -118 0 -5 -25 14 -55 44 -30 29 -55 58 -55 64 0 6 -9 14 -20 17 -11 3 -20
11 -20 16 0 19 30 8 66 -23z m-3778 3 c11 -6 6 -14 -19 -32 -33 -23 -162 -90
-166 -85 -6 6 50 86 57 81 11 -7 90 25 90 36 0 11 21 11 38 0z m3733 -32 c19
-16 20 -18 4 -10 -34 17 -51 31 -39 31 7 0 22 -9 35 -21z m-2921 -18 c-5 -11
-15 -23 -21 -27 -6 -3 -3 5 6 20 20 30 30 35 15 7z m1804 4 c-7 -18 53 -78 69
-68 6 3 7 1 3 -5 -10 -16 -61 11 -76 39 -11 19 -8 49 4 49 3 0 3 -7 0 -15z
m1119 -21 c21 -14 37 -28 34 -30 -7 -8 -107 38 -101 47 9 15 28 10 67 -17z
m-2736 -60 c-8 -8 -57 15 -57 26 0 6 5 21 11 32 11 21 13 20 31 -16 11 -21 17
-40 15 -42z m373 55 c0 -6 -4 -7 -10 -4 -5 3 -10 11 -10 16 0 6 5 7 10 4 6 -3
10 -11 10 -16z m2140 5 c-8 -8 -23 -20 -34 -25 -13 -7 -9 -1 9 15 34 29 43 33
25 10z m-765 -14 c3 -5 -1 -10 -9 -10 -9 0 -16 5 -16 10 0 6 4 10 9 10 6 0 13
-4 16 -10z m795 5 c0 -2 -10 -9 -22 -15 -22 -11 -22 -10 -4 4 21 17 26 19 26
11z m179 -29 c16 -9 19 -14 10 -17 -19 -7 -102 15 -93 24 12 11 57 8 83 -7z
m-851 -15 c10 -6 8 -10 -9 -14 -20 -5 -21 -8 -8 -23 13 -16 12 -16 -8 -5 -20
10 -21 14 -10 31 13 22 16 23 35 11z m497 -5 c-11 -7 -31 -16 -45 -20 -18 -5
-15 -1 10 13 41 22 63 27 35 7z m75 -1 c-15 -18 1 -20 18 -3 7 7 12 9 12 5 0
-22 -250 -130 -266 -114 -3 2 7 8 21 11 14 4 23 11 20 16 -3 6 -1 11 4 11 16
2 20 3 83 22 32 10 70 28 85 42 32 28 41 32 23 10z m240 -10 c11 -13 10 -14
-4 -9 -9 3 -16 2 -16 -4 0 -5 -23 -14 -51 -19 l-51 -11 25 25 c20 21 28 23 45
14 16 -8 21 -7 26 4 7 19 10 19 26 0z m-2694 -5 c8 0 14 -5 14 -11 0 -14 -70
-3 -85 13 -7 7 0 9 24 4 18 -3 40 -6 47 -6z m1789 0 c3 -5 2 -10 -4 -10 -5 0
-13 5 -16 10 -3 6 -2 10 4 10 5 0 13 -4 16 -10z m245 -35 c-7 -8 -18 -15 -24
-15 -6 0 -4 5 4 10 13 9 13 11 0 21 -13 9 -12 10 3 5 10 -3 17 0 18 7 0 9 2 9
6 -1 3 -7 -1 -19 -7 -27z m-2366 13 c-5 -8 -1 -9 12 -5 18 7 18 6 -1 -8 -11
-9 -25 -13 -32 -11 -6 3 -14 0 -16 -7 -2 -7 -8 -8 -13 -4 -11 11 15 27 33 20
8 -3 13 -2 12 3 -2 14 0 24 7 24 3 0 2 -5 -2 -12z m2191 -23 c39 -18 71 -21
280 -26 39 -1 57 -4 40 -6 -33 -5 -50 -23 -33 -34 10 -6 -24 -6 -84 -1 -10 1
-18 8 -18 15 0 8 -12 14 -30 14 -17 0 -27 -5 -23 -10 19 -30 -171 27 -198 59
-15 19 10 14 66 -11z m-2835 -5 c18 -5 10 -7 -32 -8 -32 0 -58 4 -58 9 0 11
54 10 90 -1z m-104 -9 c-3 -5 15 -14 40 -20 87 -22 164 -72 164 -107 0 -11
-14 -3 -46 25 -71 62 -194 90 -254 56 -23 -13 -21 -13 30 -8 95 9 217 -51 236
-117 6 -22 2 -20 -39 18 -61 55 -73 54 -18 -2 39 -40 42 -46 30 -67 -7 -13
-18 -30 -26 -37 -8 -8 -11 -17 -8 -20 3 -3 21 14 41 37 20 23 38 40 41 37 10
-10 -28 -64 -76 -110 -65 -59 -122 -85 -214 -95 -61 -7 -86 -4 -160 16 -49 12
-90 23 -93 23 -2 0 -4 5 -4 10 0 6 7 10 14 10 8 0 27 17 42 38 16 20 31 40 34
44 3 5 31 -1 63 -12 31 -11 61 -20 67 -20 18 0 11 18 -11 25 -38 12 -89 65
-89 93 0 26 97 163 129 182 20 12 114 13 107 1z m575 -5 c-9 -11 -9 -15 1 -19
7 -3 3 -6 -9 -6 -27 -1 -28 2 -7 23 19 20 31 21 15 2z m3372 -1 c44 -18 134
-119 147 -164 5 -19 8 -35 7 -36 -1 -1 -25 -18 -53 -38 -29 -20 -57 -37 -63
-37 -6 0 -11 -4 -11 -10 0 -5 5 -10 11 -10 6 0 24 -11 41 -25 16 -14 35 -25
41 -25 7 0 4 7 -6 15 -18 13 -18 14 5 18 12 2 8 3 -9 1 -46 -4 -41 13 10 36
l42 20 18 -23 c10 -12 30 -34 43 -49 13 -15 24 -30 24 -33 0 -13 -152 -48
-214 -49 -58 -1 -82 4 -129 26 -61 29 -167 127 -167 155 0 13 3 13 15 3 12
-10 15 -10 15 0 0 7 14 30 32 52 23 30 26 38 12 30 -11 -6 -26 -22 -34 -36 -7
-14 -17 -26 -22 -26 -16 0 -8 36 16 71 31 45 97 77 177 86 47 5 57 8 44 16
-25 14 -132 0 -180 -23 -42 -21 -90 -74 -80 -89 3 -5 0 -11 -6 -13 -9 -3 -9
-10 1 -27 10 -19 10 -23 -2 -19 -7 3 -18 14 -24 26 -6 12 -19 31 -29 42 -10
11 -16 23 -12 26 3 3 13 -6 22 -20 22 -34 35 -33 35 2 0 43 60 98 134 121 75
24 103 25 149 6z m-3728 -25 c3 -5 2 -10 -4 -10 -5 0 -13 5 -16 10 -3 6 -2 10
4 10 5 0 13 -4 16 -10z m743 -56 c432 -108 899 -143 1317 -101 212 22 458 61
548 88 45 13 73 17 80 10 7 -5 35 -16 62 -24 l50 -15 -30 -12 c-37 -14 -301
-76 -370 -85 -57 -8 -95 -24 -59 -25 34 0 366 68 436 90 43 14 91 20 153 20
104 -1 102 -3 -52 -55 -62 -21 -111 -40 -109 -42 11 -12 417 116 440 138 13
12 26 11 26 -1 0 -12 -186 -106 -288 -145 -156 -61 -20 -32 158 34 58 21 113
42 124 46 14 6 18 5 14 -5 -7 -23 -178 -108 -288 -145 -118 -39 -115 -45 6
-15 86 20 260 86 270 101 9 15 24 10 24 -8 0 -20 -117 -87 -245 -139 -44 -18
-73 -33 -64 -34 24 0 208 64 266 93 41 21 52 24 56 12 3 -7 0 -18 -6 -23 -23
-18 -212 -109 -275 -132 -34 -13 -61 -24 -59 -26 9 -9 175 44 256 82 51 24 95
44 97 44 2 0 4 -10 4 -23 0 -20 -18 -33 -102 -79 -151 -81 -351 -151 -582
-204 -43 -10 -74 -20 -68 -22 18 -6 239 48 370 90 172 54 278 96 333 130 60
36 69 36 66 -4 -2 -31 -9 -36 -103 -83 -124 -62 -271 -116 -433 -161 -144 -39
-437 -99 -561 -114 -47 -5 -105 -12 -130 -15 -25 -4 -155 -9 -290 -12 -289 -6
-478 9 -775 63 -314 57 -585 141 -790 244 -83 42 -90 48 -93 77 l-3 32 83 -38
c204 -95 492 -185 684 -215 158 -25 144 -18 -61 29 -256 58 -364 94 -531 176
-146 71 -168 86 -156 107 6 8 35 0 104 -28 98 -40 216 -76 224 -67 3 3 -19 12
-48 22 -29 9 -100 40 -158 68 -82 40 -106 57 -108 74 -3 23 -3 23 63 -7 78
-35 233 -85 241 -77 3 3 -12 10 -33 17 -21 7 -89 36 -150 66 -88 42 -113 58
-113 74 0 25 2 25 48 1 64 -32 322 -110 322 -97 0 2 -33 14 -72 26 -109 32
-288 120 -288 141 0 15 14 12 103 -22 100 -39 216 -73 223 -67 1 2 -45 25
-104 51 -117 52 -217 106 -209 113 3 3 63 -17 133 -44 135 -52 261 -93 285
-91 8 0 -17 11 -56 24 -38 13 -106 39 -150 59 l-80 36 45 0 c25 0 109 -15 185
-34 182 -45 336 -76 372 -75 15 0 -37 15 -117 34 -80 18 -187 45 -238 60 l-93
28 34 12 c18 6 44 19 57 28 13 9 27 14 32 11 5 -3 70 -21 146 -40z m2319 40
c-3 -3 -12 -4 -19 -1 -8 3 -5 6 6 6 11 1 17 -2 13 -5z m-1077 -28 c0 -2 -8
-10 -17 -17 -16 -13 -17 -12 -4 4 13 16 21 21 21 13z m-1978 -85 c-20 -35 -22
-35 -15 2 3 15 11 27 19 27 10 0 9 -7 -4 -29z"/>
<path d="M7282 7994 l-47 -47 45 38 c62 52 65 55 56 55 -4 0 -28 -21 -54 -46z"/>
<path d="M5046 8000 c-37 -10 -73 -23 -78 -28 -6 -6 13 -4 42 5 38 11 86 14
181 11 71 -1 129 0 129 5 0 4 -11 7 -23 7 -13 0 -27 3 -30 6 -15 15 -155 11
-221 -6z"/>
<path d="M4540 7956 c-61 -14 -150 -58 -177 -89 -12 -13 0 -8 32 12 52 33 160
71 200 71 13 0 27 5 30 10 8 12 -14 11 -85 -4z"/>
<path d="M5650 7930 c-18 -6 -5 -8 45 -9 39 -1 81 -4 95 -6 21 -5 22 -4 5 3
l-20 9 20 5 c11 3 -11 6 -50 6 -38 0 -81 -4 -95 -8z"/>
<path d="M5861 7886 c2 -2 15 -9 29 -15 24 -11 24 -11 6 3 -16 13 -49 24 -35
12z"/>
<path d="M5640 7710 c-8 -5 -10 -10 -5 -10 6 0 17 5 25 10 8 5 11 10 5 10 -5
0 -17 -5 -25 -10z"/>
<path d="M4090 7574 c-14 -37 -12 -101 4 -132 8 -15 29 -40 47 -57 17 -16 29
-24 25 -17 -6 10 -1 11 21 6 15 -4 33 -11 39 -15 21 -16 145 -50 157 -42 8 5
3 9 -13 13 -16 4 -26 14 -28 28 -4 25 -22 30 -22 7 0 -17 -16 -20 -25 -5 -4 6
-12 9 -18 8 -19 -4 -57 21 -57 37 0 8 -11 27 -26 42 l-25 28 16 -33 c26 -54
12 -58 -35 -11 -47 47 -60 85 -49 137 8 38 2 42 -11 6z m60 -174 c6 -11 8 -20
6 -20 -3 0 -10 9 -16 20 -6 11 -8 20 -6 20 3 0 10 -9 16 -20z"/>
<path d="M4965 7520 c-3 -5 -1 -10 4 -10 6 0 11 5 11 10 0 6 -2 10 -4 10 -3 0
-8 -4 -11 -10z"/>
<path d="M5545 7417 c-21 -11 -34 -22 -28 -24 13 -5 69 22 78 37 9 14 -4 11
-50 -13z"/>
<path d="M4260 7420 c0 -8 5 -22 10 -30 9 -13 10 -13 10 0 0 8 -5 22 -10 30
-9 13 -10 13 -10 0z"/>
<path d="M5638 7389 c-27 -15 -21 -29 7 -16 14 7 25 15 25 20 0 10 -11 8 -32
-4z"/>
<path d="M5540 7375 c-14 -8 -47 -22 -75 -32 l-50 -18 80 -6 c78 -6 105 -3
105 10 0 3 -24 5 -52 3 l-53 -3 45 30 c46 31 46 42 0 16z"/>
<path d="M5380 7290 c0 -5 5 -10 10 -10 6 0 10 5 10 10 0 6 -4 10 -10 10 -5 0
-10 -4 -10 -10z"/>
<path d="M5418 7293 c6 -2 18 -2 25 0 6 3 1 5 -13 5 -14 0 -19 -2 -12 -5z"/>
<path d="M5650 7293 c-47 -2 -88 -7 -92 -11 -10 -10 154 -16 182 -7 22 7 28
26 8 23 -7 -1 -51 -4 -98 -5z"/>
<path d="M6985 7620 c-10 -11 -16 -22 -14 -24 2 -2 12 7 22 20 22 29 17 32 -8
4z"/>
<path d="M6765 7390 c-10 -11 -16 -22 -13 -25 3 -3 13 4 23 15 10 11 16 22 13
25 -3 3 -13 -4 -23 -15z"/>
<path d="M6247 7114 c-27 -26 -46 -48 -44 -50 2 -2 25 19 52 46 62 63 56 65
-8 4z"/>
<path d="M2418 7153 c6 -2 18 -2 25 0 6 3 1 5 -13 5 -14 0 -19 -2 -12 -5z"/>
<path d="M1530 6914 c0 -8 40 -44 48 -44 3 0 -5 11 -18 25 -24 26 -30 29 -30
19z"/>
<path d="M7828 7043 c7 -3 16 -2 19 1 4 3 -2 6 -13 5 -11 0 -14 -3 -6 -6z"/>
<path d="M5345 6834 c-62 -16 -92 -30 -126 -61 -102 -92 -109 -324 -11 -419
52 -51 83 -64 161 -71 88 -7 154 14 203 65 50 52 68 93 77 172 15 144 -41 257
-147 294 -49 17 -127 27 -157 20z m112 -99 c47 -31 67 -174 38 -272 -38 -127
-155 -137 -200 -18 -24 62 -18 207 11 256 35 59 92 72 151 34z"/>
<path d="M4823 6823 c-27 -4 -33 -9 -33 -28 0 -15 7 -26 21 -30 11 -4 24 -17
29 -29 9 -25 16 -123 9 -130 -2 -2 -40 -7 -85 -11 l-81 -7 -6 39 c-13 75 -9
124 11 130 14 3 17 12 14 32 l-4 27 -76 -7 c-135 -13 -142 -16 -142 -49 0 -23
5 -30 19 -30 11 0 22 -4 25 -8 6 -11 46 -322 46 -362 0 -18 -6 -33 -15 -36 -9
-4 -15 -19 -15 -36 l0 -30 68 7 c153 13 149 12 144 45 -2 17 -10 30 -18 30
-19 0 -30 31 -37 106 l-6 61 46 7 c25 3 63 6 83 6 34 0 38 -3 44 -31 13 -66 7
-126 -14 -140 -14 -10 -18 -21 -14 -36 6 -22 11 -23 110 -23 l104 0 0 34 c0
25 -5 35 -20 39 -15 4 -20 14 -21 39 -1 18 -3 43 -4 56 -1 12 -5 57 -9 100 -4
42 -9 105 -13 139 -5 55 -3 63 16 75 11 7 21 23 21 35 0 22 -3 23 -82 21 -46
0 -98 -3 -115 -5z"/>
<path d="M5790 6757 c0 -14 8 -30 17 -36 16 -9 16 -21 -10 -197 -15 -103 -32
-193 -38 -201 -6 -7 -20 -13 -31 -13 -15 0 -19 -6 -16 -27 3 -26 9 -29 73 -45
39 -10 89 -20 113 -24 41 -6 42 -5 42 21 0 15 -9 34 -22 44 -20 17 -21 23 -12
77 l9 59 85 -3 c133 -6 188 25 220 121 16 51 6 100 -31 141 -46 53 -84 64
-356 103 -41 5 -43 5 -43 -20z m245 -91 c61 -26 74 -92 28 -146 -25 -30 -30
-32 -75 -28 -27 3 -50 7 -52 9 -2 2 0 29 5 59 5 30 12 70 15 88 6 37 24 41 79
18z"/>
<path d="M4123 6736 c-88 -28 -133 -85 -133 -168 0 -52 28 -101 70 -123 16 -8
67 -20 113 -26 119 -14 163 -54 119 -109 -13 -16 -32 -24 -69 -27 -48 -5 -51
-4 -84 35 -32 39 -34 40 -61 26 -23 -12 -26 -18 -18 -38 5 -13 14 -43 20 -66
l11 -42 102 4 c89 3 109 7 154 32 69 38 87 67 87 136 0 110 -53 155 -201 170
-57 6 -92 15 -105 26 -43 40 5 106 78 106 31 0 44 -7 71 -36 30 -32 36 -35 56
-25 12 7 23 13 25 14 5 5 -21 100 -31 113 -13 16 -149 15 -204 -2z"/>
<path d="M6670 6590 c8 -5 20 -10 25 -10 6 0 3 5 -5 10 -8 5 -19 10 -25 10 -5
0 -3 -5 5 -10z"/>
<path d="M6672 6424 c-32 -36 -47 -45 -69 -44 -15 1 -45 2 -67 1 l-39 -1 43
-38 c40 -35 42 -40 30 -61 -29 -54 -31 -97 -4 -72 5 4 24 13 43 20 32 10 37 9
77 -25 24 -19 48 -32 54 -29 5 3 10 31 10 60 0 54 1 55 41 76 45 23 43 31 -13
48 -34 11 -37 15 -43 61 -4 28 -10 50 -14 50 -4 0 -26 -21 -49 -46z"/>
<path d="M3501 6443 c-5 -10 -12 -40 -16 -67 -7 -46 -10 -49 -58 -71 l-50 -24
46 -22 45 -22 -5 -54 c-7 -65 2 -67 62 -17 l44 36 56 -21 56 -21 -6 22 c-4 13
-14 38 -21 57 -16 37 -15 39 40 100 l31 33 -68 -4 -68 -4 -35 48 c-20 26 -37
48 -39 48 -3 0 -9 -8 -14 -17z"/>
<path d="M3061 6186 c11 -9 69 -15 64 -6 -3 6 -20 10 -37 10 -17 0 -29 -2 -27
-4z"/>
<path d="M3150 6150 c0 -6 7 -13 15 -17 24 -9 27 1 5 15 -13 8 -20 8 -20 2z"/>
<path d="M3098 6113 c6 -2 18 -2 25 0 6 3 1 5 -13 5 -14 0 -19 -2 -12 -5z"/>
<path d="M2118 6843 c7 -3 16 -2 19 1 4 3 -2 6 -13 5 -11 0 -14 -3 -6 -6z"/>
<path d="M8157 6655 c-15 -14 -27 -29 -27 -32 0 -4 14 6 30 22 28 26 34 35 27
35 -1 0 -15 -11 -30 -25z"/>
<path d="M7540 6770 c-8 -5 -28 -10 -45 -10 -26 -1 -27 -2 -12 -11 19 -11 81
4 92 22 8 12 -16 11 -35 -1z"/>
<path d="M8518 6733 c7 -3 16 -2 19 1 4 3 -2 6 -13 5 -11 0 -14 -3 -6 -6z"/>
<path d="M7297 6629 c7 -7 15 -10 18 -7 3 3 -2 9 -12 12 -14 6 -15 5 -6 -5z"/>
<path d="M1800 6480 c0 -8 50 -24 56 -18 2 2 -10 9 -26 15 -17 6 -30 8 -30 3z"/>
<path d="M8017 6439 c7 -7 15 -10 18 -7 3 3 -2 9 -12 12 -14 6 -15 5 -6 -5z"/>
<path d="M9000 6225 c14 -8 30 -14 35 -14 6 0 -1 6 -15 14 -14 8 -29 14 -35
14 -5 0 1 -6 15 -14z"/>
<path d="M2238 5933 c-26 -4 -28 -8 -29 -56 -1 -29 -3 -63 -4 -77 -8 -82 -27
-492 -23 -496 12 -11 155 28 222 61 90 45 161 107 205 180 29 48 35 68 38 133
4 69 2 83 -24 132 -31 62 -71 93 -146 115 -47 14 -172 18 -239 8z"/>
<path d="M2221 5060 c-24 -5 -45 -11 -46 -12 -8 -9 -21 -279 -20 -428 0 -146
3 -181 18 -209 9 -19 17 -38 17 -43 0 -4 -8 -8 -17 -8 -24 -1 -55 -25 -45 -36
4 -4 -2 -2 -12 6 -13 10 -17 10 -12 3 4 -8 2 -13 -6 -14 -7 0 -39 -3 -70 -5
-47 -4 -57 -2 -52 9 3 8 -2 17 -10 20 -11 4 -16 1 -16 -12 0 -12 -9 -20 -25
-23 -14 -3 -25 -2 -25 2 0 5 -9 6 -20 3 -11 -3 -20 0 -20 6 0 11 -81 8 -100
-4 -9 -5 -50 23 -50 35 0 5 11 25 24 45 23 33 45 130 33 142 -9 9 -89 -64
-119 -108 -37 -55 -52 -129 -36 -181 39 -131 202 -201 412 -178 177 21 320 92
456 230 131 132 200 279 200 425 0 161 -67 262 -209 316 -64 24 -183 33 -250
19z m12 -594 c3 -30 1 -43 -4 -35 -8 13 -13 97 -5 88 2 -2 6 -26 9 -53z"/>
<path d="M7119 3926 c27 -29 33 -32 25 -13 -2 7 -14 19 -27 26 -21 13 -21 12
2 -13z"/>
<path d="M7084 5793 c-8 -5 -14 -93 -19 -266 l-7 -258 29 7 c71 17 153 58 193
96 120 116 122 309 3 392 -35 24 -54 30 -115 33 -40 2 -78 0 -84 -4z m53 -230
c-2 -27 -3 -5 -3 47 0 52 1 74 3 48 2 -27 2 -69 0 -95z m20 75 c-3 -8 -6 -5
-6 6 -1 11 2 17 5 13 3 -3 4 -12 1 -19z"/>
<path d="M7690 4380 c0 -6 7 -10 15 -10 8 0 15 2 15 4 0 2 -7 6 -15 10 -8 3
-15 1 -15 -4z"/>
<path d="M3725 5618 c-2 -7 -8 -44 -13 -83 -5 -38 -30 -173 -56 -298 -27 -126
-46 -231 -43 -233 4 -5 237 15 244 21 2 1 -6 68 -17 151 -11 82 -28 218 -37
302 l-17 152 -28 0 c-16 0 -30 -6 -33 -12z m14 -360 c-1 -37 -4 -50 -7 -33
l-4 30 -14 -40 c-10 -29 -12 -32 -9 -10 6 36 28 115 32 115 2 0 2 -28 2 -62z"/>
<path d="M6340 4060 c0 -5 5 -10 11 -10 5 0 7 5 4 10 -3 6 -8 10 -11 10 -2 0
-4 -4 -4 -10z"/>
<path d="M6228 4053 c7 -3 16 -2 19 1 4 3 -2 6 -13 5 -11 0 -14 -3 -6 -6z"/>
<path d="M6606 4019 c3 -5 27 -20 54 -34 26 -13 57 -36 69 -51 13 -16 21 -21
21 -12 0 8 -10 24 -22 35 -25 23 -132 77 -122 62z"/>
<path d="M6301 3984 c-54 -45 -31 -119 44 -144 60 -20 135 30 135 91 0 41 -50
79 -105 79 -32 0 -51 -7 -74 -26z m113 -46 c-4 -13 -12 -26 -17 -30 -13 -8
-68 1 -82 14 -16 15 24 38 68 38 35 0 38 -2 31 -22z"/>
<path d="M5975 3881 c-26 -11 -51 -39 -64 -73 -8 -22 -6 -31 10 -52 17 -21 29
-26 68 -26 60 0 86 24 86 82 0 61 -45 91 -100 69z m47 -47 c-7 -42 -12 -48
-26 -28 -12 15 -16 16 -30 5 -9 -8 -16 -9 -16 -3 0 15 51 53 64 49 6 -2 10
-13 8 -23z"/>
<path d="M6650 3828 c-28 -31 -27 -88 3 -116 36 -34 83 -44 117 -27 36 18 45
46 30 90 -22 68 -108 98 -150 53z m71 -25 c1 -5 2 -20 3 -34 2 -25 0 -26 -22
-16 -18 9 -25 8 -33 -4 -6 -10 -9 -7 -9 13 0 15 8 31 18 37 20 12 41 14 43 4z"/>
<path d="M5791 3644 c0 -11 3 -14 6 -6 3 7 2 16 -1 19 -3 4 -6 -2 -5 -13z"/>
<path d="M6284 3600 c-28 -11 -54 -48 -54 -78 0 -32 52 -82 85 -82 93 0 130
103 52 150 -35 22 -50 23 -83 10z"/>
<path d="M5745 3560 c-4 -6 -8 -50 -11 -98 -3 -66 -1 -92 10 -107 19 -26 31
-13 16 16 -8 14 -11 53 -8 110 2 49 3 89 2 89 -2 0 -6 -5 -9 -10z"/>
<path d="M5853 3527 c-29 -32 -35 -56 -23 -93 15 -45 58 -74 108 -74 48 0 72
20 72 61 0 91 -106 163 -157 106z m92 -37 c10 -11 13 -20 7 -20 -7 0 -12 -12
-12 -26 l0 -26 -29 24 c-29 22 -38 47 -24 61 12 13 40 7 58 -13z"/>
<path d="M6871 3494 c0 -11 3 -14 6 -6 3 7 2 16 -1 19 -3 4 -6 -2 -5 -13z"/>
<path d="M6649 3461 c-22 -22 -29 -39 -29 -68 0 -43 5 -52 40 -76 39 -27 87
-22 121 12 41 41 38 74 -10 122 -48 48 -81 51 -122 10z m83 -35 c11 -26 5 -56
-11 -56 -6 0 -8 7 -4 17 5 14 1 15 -25 10 -36 -7 -39 -1 -16 31 20 29 42 28
56 -2z"/>
<path d="M6090 3259 c0 -5 5 -7 10 -4 6 3 10 8 10 11 0 2 -4 4 -10 4 -5 0 -10
-5 -10 -11z"/>
<path d="M6279 3181 c-27 -28 -31 -37 -26 -68 7 -42 27 -67 68 -84 42 -17 90
7 113 55 15 32 15 39 2 64 -21 40 -39 53 -85 59 -35 5 -44 2 -72 -26z m104
-15 c16 -12 16 -14 1 -20 -23 -9 -84 -7 -84 2 0 30 52 41 83 18z"/>
<path d="M6580 3014 c-30 -13 -48 -24 -40 -24 22 0 100 32 100 41 0 5 -1 8 -2
8 -2 -1 -28 -12 -58 -25z"/>
<path d="M5113 3863 c9 -2 23 -2 30 0 6 3 -1 5 -18 5 -16 0 -22 -2 -12 -5z"/>
<path d="M3435 3870 c81 -23 88 -23 80 -10 -4 7 3 7 20 0 15 -6 38 -10 53 -9
l27 1 -30 12 c-16 8 -73 16 -125 19 l-95 6 70 -19z"/>
<path d="M3033 3823 c9 -2 25 -2 35 0 9 3 1 5 -18 5 -19 0 -27 -2 -17 -5z"/>
<path d="M3350 3665 c14 -7 27 -11 30 -9 6 7 -22 24 -40 23 -9 0 -5 -6 10 -14z"/>
<path d="M3142 3623 c2 -11 12 -17 23 -16 11 1 23 -4 28 -10 5 -8 7 -5 5 8 -4
24 -16 35 -41 35 -12 0 -17 -6 -15 -17z"/>
<path d="M3070 3275 c14 -8 30 -14 35 -14 6 0 -1 6 -15 14 -14 8 -29 14 -35
14 -5 0 1 -6 15 -14z"/>
<path d="M3160 3280 c19 -13 30 -13 30 0 0 6 -10 10 -22 10 -19 0 -20 -2 -8
-10z"/>
<path d="M3218 3189 c15 -6 30 -5 40 1 13 7 8 9 -23 9 -35 0 -37 -1 -17 -10z"/>
<path d="M5440 3805 c0 -6 7 -19 15 -29 21 -27 19 -59 -6 -90 -11 -14 -19 -31
-17 -38 2 -6 15 4 28 22 31 43 31 93 2 122 -12 13 -22 18 -22 13z"/>
<path d="M4440 3790 c-10 -6 -3 -9 27 -7 23 0 39 5 37 9 -7 11 -46 10 -64 -2z"/>
<path d="M5492 3785 c2 -5 14 -31 26 -57 32 -67 31 -135 -2 -193 -22 -36 -40
-52 -95 -80 -75 -37 -214 -70 -346 -79 -181 -14 -304 -21 -370 -20 l-70 1 55
-17 c44 -14 88 -17 225 -14 94 1 184 5 200 9 118 24 359 91 384 106 42 26 83
91 88 143 4 34 -1 57 -20 98 -21 44 -86 134 -75 103z"/>
<path d="M4480 3761 c0 -8 50 -22 74 -20 14 1 -44 28 -61 29 -7 0 -13 -4 -13
-9z"/>
<path d="M4630 3650 c0 -5 5 -10 10 -10 6 0 10 5 10 10 0 6 -4 10 -10 10 -5 0
-10 -4 -10 -10z"/>
<path d="M5263 3646 c-43 -16 -55 -29 -18 -21 17 4 37 14 45 21 16 16 17 16
-27 0z"/>
<path d="M5350 3619 l-35 -30 31 15 c17 8 34 22 37 31 8 20 8 20 -33 -16z"/>
<path d="M5060 3590 c-12 -8 -11 -10 7 -10 12 0 25 5 28 10 8 13 -15 13 -35 0z"/>
<path d="M5331 3559 c-13 -5 -21 -12 -18 -15 3 -3 18 1 34 10 31 17 21 20 -16
5z"/>
<path d="M5341 3379 c-35 -10 -66 -21 -69 -24 -8 -8 54 6 118 26 73 23 32 22
-49 -2z"/>
<path d="M4718 3373 c6 -2 18 -2 25 0 6 3 1 5 -13 5 -14 0 -19 -2 -12 -5z"/>
<path d="M4331 3314 c0 -11 3 -14 6 -6 3 7 2 16 -1 19 -3 4 -6 -2 -5 -13z"/>
<path d="M4582 3318 c-5 -7 -13 -24 -16 -38 -6 -23 -6 -23 5 -5 6 11 19 28 27
38 8 9 10 17 5 17 -6 0 -15 -6 -21 -12z"/>
<path d="M5045 3300 c3 -5 8 -10 11 -10 2 0 4 5 4 10 0 6 -5 10 -11 10 -5 0
-7 -4 -4 -10z"/>
<path d="M2690 3424 c0 -13 52 -54 68 -54 11 0 6 8 -15 21 -18 12 -33 25 -33
30 0 5 -4 9 -10 9 -5 0 -10 -3 -10 -6z"/>
<path d="M2370 2963 c-14 -3 -29 -9 -35 -15 -7 -7 -2 -9 15 -4 14 3 49 6 79 6
30 0 52 2 50 4 -8 7 -84 13 -109 9z"/>
<path d="M3720 3180 c-12 -8 -11 -10 5 -9 11 1 31 5 45 9 24 8 24 8 -5 9 -16
0 -37 -4 -45 -9z"/>
<path d="M3600 3110 c-13 -9 -13 -10 0 -10 8 0 22 5 30 10 13 9 13 10 0 10 -8
0 -22 -5 -30 -10z"/>
<path d="M3260 2585 c-11 -13 -10 -14 4 -9 9 3 16 10 16 15 0 13 -6 11 -20 -6z"/>
<path d="M2955 2566 l30 -13 -27 -8 c-47 -12 -31 -22 45 -29 75 -7 174 6 192
26 7 8 5 9 -10 3 -11 -5 -65 -10 -120 -12 -95 -2 -98 -2 -67 12 35 16 44 30
13 20 -11 -3 -22 -1 -26 5 -3 5 -18 10 -33 10 l-27 -1 30 -13z"/>
<path d="M6910 2640 c-12 -8 -11 -10 8 -10 12 0 22 5 22 10 0 13 -11 13 -30 0z"/>
<path d="M6960 2597 c29 -33 96 -74 125 -77 50 -5 238 1 231 7 -4 4 -58 6
-121 4 -124 -2 -164 9 -230 68 l-30 26 25 -28z"/>
<path d="M4038 2653 c7 -3 16 -2 19 1 4 3 -2 6 -13 5 -11 0 -14 -3 -6 -6z"/>
<path d="M5084 2490 l-32 -68 -71 -7 c-39 -4 -71 -9 -71 -11 0 -2 23 -25 51
-51 47 -44 50 -50 45 -83 -3 -19 -9 -52 -12 -73 l-7 -38 64 37 63 38 68 -37
c38 -20 68 -33 68 -29 -1 4 -7 36 -15 72 -7 35 -11 68 -8 73 2 4 27 25 54 47
l50 39 -38 6 c-109 18 -106 16 -138 82 -16 34 -32 64 -35 66 -3 2 -19 -26 -36
-63z"/>
<path d="M4416 2491 c-27 -42 -29 -43 -72 -38 -24 2 -44 3 -44 1 0 -3 14 -17
31 -32 30 -27 31 -29 19 -71 -6 -24 -9 -45 -7 -47 2 -2 20 3 41 11 32 14 39
14 65 0 17 -8 33 -19 36 -25 15 -24 25 -7 19 32 -7 38 -5 43 27 68 l33 28 -41
12 c-34 11 -43 19 -60 59 l-19 46 -28 -44z"/>
<path d="M5764 2488 c-22 -50 -30 -58 -65 -58 -40 0 -42 -11 -4 -37 31 -21 35
-29 35 -69 l0 -44 39 26 39 25 41 -21 c46 -23 48 -20 30 45 -11 38 -10 40 22
67 l33 28 -47 0 c-43 0 -49 3 -73 40 -15 22 -28 40 -29 40 -1 0 -10 -19 -21
-42z"/>
<path d="M5878 2193 c7 -3 16 -2 19 1 4 3 -2 6 -13 5 -11 0 -14 -3 -6 -6z"/>
<path d="M8310 7689 c0 -5 5 -7 10 -4 6 3 10 8 10 11 0 2 -4 4 -10 4 -5 0 -10
-5 -10 -11z"/>
<path d="M2100 7090 c41 -37 167 -106 177 -97 2 3 -10 10 -27 17 -18 7 -68 37
-113 67 -80 52 -81 53 -37 13z"/>
<path d="M8985 4480 c10 -11 20 -20 23 -20 3 0 -3 9 -13 20 -10 11 -20 20 -23
20 -3 0 3 -9 13 -20z"/>
<path d="M9015 4420 c-4 -17 -5 -34 -2 -36 2 -3 7 10 11 27 8 42 0 50 -9 9z"/>
<path d="M9132 4420 c0 -14 2 -19 5 -12 2 6 2 18 0 25 -3 6 -5 1 -5 -13z"/>
<path d="M9110 4383 c0 -1 9 -7 20 -13 15 -8 20 -8 20 3 0 7 -9 13 -20 13 -11
0 -20 -1 -20 -3z"/>
</g>
</svg>
